<svg xmlns="http://www.w3.org/2000/svg" xmlns:xlink="http://www.w3.org/1999/xlink" width="271" zoomAndPan="magnify" viewBox="0 0 203.25 137.249994" height="183" preserveAspectRatio="xMidYMid meet" version="1.0"><defs><g/><clipPath id="56189a74ca"><path d="M 0.179688 0 L 202.324219 0 L 202.324219 136.132812 L 0.179688 136.132812 Z M 0.179688 0 " clip-rule="nonzero"/></clipPath><clipPath id="69256b0d6c"><path d="M 22.558594 0 L 179.945312 0 C 192.304688 0 202.324219 10.019531 202.324219 22.378906 L 202.324219 113.753906 C 202.324219 126.113281 192.304688 136.132812 179.945312 136.132812 L 22.558594 136.132812 C 10.199219 136.132812 0.179688 126.113281 0.179688 113.753906 L 0.179688 22.378906 C 0.179688 10.019531 10.199219 0 22.558594 0 Z M 22.558594 0 " clip-rule="nonzero"/></clipPath><clipPath id="aac28e4ddb"><path d="M 0.179688 0 L 202.324219 0 L 202.324219 136.132812 L 0.179688 136.132812 Z M 0.179688 0 " clip-rule="nonzero"/></clipPath><clipPath id="3b2a25902b"><path d="M 22.558594 0 L 179.945312 0 C 192.304688 0 202.324219 10.019531 202.324219 22.378906 L 202.324219 113.753906 C 202.324219 126.113281 192.304688 136.132812 179.945312 136.132812 L 22.558594 136.132812 C 10.199219 136.132812 0.179688 126.113281 0.179688 113.753906 L 0.179688 22.378906 C 0.179688 10.019531 10.199219 0 22.558594 0 Z M 22.558594 0 " clip-rule="nonzero"/></clipPath><clipPath id="2882c1a944"><rect x="0" width="203" y="0" height="137"/></clipPath><clipPath id="4f09f50a28"><path d="M 154 3 L 157.917969 3 L 157.917969 8 L 154 8 Z M 154 3 " clip-rule="nonzero"/></clipPath><clipPath id="191202d349"><rect x="0" width="158" y="0" height="10"/></clipPath></defs><g clip-path="url(#56189a74ca)"><g clip-path="url(#69256b0d6c)"><g transform="matrix(1, 0, 0, 1, 0, -0.000000000000003064)"><g clip-path="url(#2882c1a944)"><g clip-path="url(#aac28e4ddb)"><g clip-path="url(#3b2a25902b)"><path fill="#f5f0e8" d="M 0.179688 0 L 202.25 0 L 202.25 136.132812 L 0.179688 136.132812 Z M 0.179688 0 " fill-opacity="1" fill-rule="nonzero"/></g></g></g></g></g></g><g fill="#0f0e0c" fill-opacity="1"><g transform="translate(19.491787, 77.903452)"><g><path d="M 34.625 -29.5625 L 34.625 -28.734375 C 33.675781 -28.703125 32.957031 -28.597656 32.46875 -28.421875 C 31.976562 -28.242188 31.648438 -27.910156 31.484375 -27.421875 C 31.316406 -26.929688 31.234375 -26.171875 31.234375 -25.140625 L 31.234375 -4.421875 C 31.234375 -3.421875 31.316406 -2.671875 31.484375 -2.171875 C 31.648438 -1.671875 31.976562 -1.335938 32.46875 -1.171875 C 32.957031 -1.003906 33.675781 -0.890625 34.625 -0.828125 L 34.625 0 C 33.976562 -0.0507812 33.175781 -0.0820312 32.21875 -0.09375 C 31.257812 -0.113281 30.289062 -0.125 29.3125 -0.125 C 28.226562 -0.125 27.210938 -0.113281 26.265625 -0.09375 C 25.316406 -0.0820312 24.550781 -0.0507812 23.96875 0 L 23.96875 -0.828125 C 24.914062 -0.890625 25.632812 -1.003906 26.125 -1.171875 C 26.613281 -1.335938 26.941406 -1.671875 27.109375 -2.171875 C 27.273438 -2.671875 27.359375 -3.421875 27.359375 -4.421875 L 27.359375 -27.390625 L 27.53125 -27.265625 L 17.296875 0.203125 L 16.625 0.203125 L 6.09375 -26.890625 L 6.09375 -4.84375 C 6.09375 -3.84375 6.179688 -3.054688 6.359375 -2.484375 C 6.546875 -1.910156 6.910156 -1.503906 7.453125 -1.265625 C 7.992188 -1.035156 8.8125 -0.890625 9.90625 -0.828125 L 9.90625 0 C 9.394531 -0.0507812 8.734375 -0.0820312 7.921875 -0.09375 C 7.117188 -0.113281 6.359375 -0.125 5.640625 -0.125 C 4.941406 -0.125 4.238281 -0.113281 3.53125 -0.09375 C 2.820312 -0.0820312 2.226562 -0.0507812 1.75 0 L 1.75 -0.828125 C 2.695312 -0.890625 3.414062 -1.035156 3.90625 -1.265625 C 4.394531 -1.503906 4.722656 -1.910156 4.890625 -2.484375 C 5.054688 -3.054688 5.140625 -3.84375 5.140625 -4.84375 L 5.140625 -25.140625 C 5.140625 -26.171875 5.054688 -26.929688 4.890625 -27.421875 C 4.722656 -27.910156 4.394531 -28.242188 3.90625 -28.421875 C 3.414062 -28.597656 2.695312 -28.703125 1.75 -28.734375 L 1.75 -29.5625 C 2.226562 -29.539062 2.820312 -29.515625 3.53125 -29.484375 C 4.238281 -29.453125 4.941406 -29.4375 5.640625 -29.4375 C 6.253906 -29.4375 6.882812 -29.453125 7.53125 -29.484375 C 8.1875 -29.515625 8.738281 -29.539062 9.1875 -29.5625 L 18.671875 -4.59375 L 17.953125 -4.265625 L 27.359375 -29.4375 C 27.691406 -29.4375 28.015625 -29.4375 28.328125 -29.4375 C 28.648438 -29.4375 28.976562 -29.4375 29.3125 -29.4375 C 30.289062 -29.4375 31.257812 -29.453125 32.21875 -29.484375 C 33.175781 -29.515625 33.976562 -29.539062 34.625 -29.5625 Z M 34.625 -29.5625 "/></g></g></g><g fill="#0f0e0c" fill-opacity="1"><g transform="translate(55.123081, 77.903452)"><g><path d="M 11.359375 -22.09375 C 13.804688 -22.09375 15.71875 -21.347656 17.09375 -19.859375 C 18.476562 -18.367188 19.171875 -16.050781 19.171875 -12.90625 L 4.421875 -12.90625 L 4.390625 -13.703125 L 15.15625 -13.703125 C 15.21875 -15.066406 15.109375 -16.328125 14.828125 -17.484375 C 14.546875 -18.640625 14.101562 -19.5625 13.5 -20.25 C 12.90625 -20.945312 12.132812 -21.296875 11.1875 -21.296875 C 9.90625 -21.296875 8.769531 -20.65625 7.78125 -19.375 C 6.800781 -18.09375 6.210938 -16.0625 6.015625 -13.28125 L 6.140625 -13.109375 C 6.085938 -12.691406 6.046875 -12.234375 6.015625 -11.734375 C 5.984375 -11.234375 5.96875 -10.734375 5.96875 -10.234375 C 5.96875 -8.335938 6.273438 -6.707031 6.890625 -5.34375 C 7.503906 -3.976562 8.304688 -2.941406 9.296875 -2.234375 C 10.285156 -1.523438 11.304688 -1.171875 12.359375 -1.171875 C 13.191406 -1.171875 13.984375 -1.300781 14.734375 -1.5625 C 15.492188 -1.832031 16.191406 -2.269531 16.828125 -2.875 C 17.472656 -3.488281 18.03125 -4.3125 18.5 -5.34375 L 19.34375 -5.015625 C 19.03125 -4.097656 18.523438 -3.207031 17.828125 -2.34375 C 17.140625 -1.476562 16.265625 -0.773438 15.203125 -0.234375 C 14.140625 0.304688 12.914062 0.578125 11.53125 0.578125 C 9.519531 0.578125 7.796875 0.117188 6.359375 -0.796875 C 4.929688 -1.710938 3.832031 -2.984375 3.0625 -4.609375 C 2.300781 -6.242188 1.921875 -8.117188 1.921875 -10.234375 C 1.921875 -12.679688 2.3125 -14.789062 3.09375 -16.5625 C 3.875 -18.332031 4.972656 -19.695312 6.390625 -20.65625 C 7.804688 -21.613281 9.460938 -22.09375 11.359375 -22.09375 Z M 11.359375 -22.09375 "/></g></g></g><g fill="#0f0e0c" fill-opacity="1"><g transform="translate(76.259578, 77.903452)"><g><path d="M 15.25 -22.09375 C 16.300781 -22.09375 17.179688 -21.953125 17.890625 -21.671875 C 18.609375 -21.398438 19.203125 -21.007812 19.671875 -20.5 C 20.203125 -19.945312 20.578125 -19.253906 20.796875 -18.421875 C 21.023438 -17.585938 21.140625 -16.457031 21.140625 -15.03125 L 21.140625 -3.890625 C 21.140625 -2.710938 21.378906 -1.914062 21.859375 -1.5 C 22.347656 -1.082031 23.164062 -0.875 24.3125 -0.875 L 24.3125 0 C 23.832031 -0.03125 23.101562 -0.0664062 22.125 -0.109375 C 21.15625 -0.148438 20.210938 -0.171875 19.296875 -0.171875 C 18.378906 -0.171875 17.476562 -0.148438 16.59375 -0.109375 C 15.71875 -0.0664062 15.0625 -0.03125 14.625 0 L 14.625 -0.875 C 15.625 -0.875 16.332031 -1.082031 16.75 -1.5 C 17.164062 -1.914062 17.375 -2.710938 17.375 -3.890625 L 17.375 -15.953125 C 17.375 -16.816406 17.300781 -17.609375 17.15625 -18.328125 C 17.019531 -19.054688 16.707031 -19.640625 16.21875 -20.078125 C 15.738281 -20.523438 14.992188 -20.75 13.984375 -20.75 C 12.816406 -20.75 11.796875 -20.414062 10.921875 -19.75 C 10.046875 -19.082031 9.363281 -18.171875 8.875 -17.015625 C 8.382812 -15.859375 8.140625 -14.570312 8.140625 -13.15625 L 8.140625 -3.890625 C 8.140625 -2.710938 8.347656 -1.914062 8.765625 -1.5 C 9.179688 -1.082031 9.894531 -0.875 10.90625 -0.875 L 10.90625 0 C 10.457031 -0.03125 9.789062 -0.0664062 8.90625 -0.109375 C 8.03125 -0.148438 7.132812 -0.171875 6.21875 -0.171875 C 5.300781 -0.171875 4.351562 -0.148438 3.375 -0.109375 C 2.40625 -0.0664062 1.6875 -0.03125 1.21875 0 L 1.21875 -0.875 C 2.351562 -0.875 3.164062 -1.082031 3.65625 -1.5 C 4.144531 -1.914062 4.390625 -2.710938 4.390625 -3.890625 L 4.390625 -16.953125 C 4.390625 -18.210938 4.164062 -19.140625 3.71875 -19.734375 C 3.269531 -20.328125 2.4375 -20.625 1.21875 -20.625 L 1.21875 -21.515625 C 2.101562 -21.429688 2.960938 -21.390625 3.796875 -21.390625 C 4.609375 -21.390625 5.378906 -21.4375 6.109375 -21.53125 C 6.847656 -21.625 7.523438 -21.769531 8.140625 -21.96875 L 8.140625 -17.046875 C 8.867188 -18.929688 9.878906 -20.242188 11.171875 -20.984375 C 12.460938 -21.722656 13.820312 -22.09375 15.25 -22.09375 Z M 15.25 -22.09375 "/></g></g></g><g fill="#0f0e0c" fill-opacity="1"><g transform="translate(101.197299, 77.903452)"><g><path d="M 20.171875 -21.96875 L 20.171875 -4.515625 C 20.171875 -3.253906 20.398438 -2.320312 20.859375 -1.71875 C 21.316406 -1.125 22.144531 -0.828125 23.34375 -0.828125 L 23.34375 0.046875 C 22.476562 -0.0351562 21.613281 -0.078125 20.75 -0.078125 C 19.945312 -0.078125 19.175781 -0.0351562 18.4375 0.046875 C 17.695312 0.128906 17.019531 0.28125 16.40625 0.5 L 16.40625 -4.421875 C 15.71875 -2.617188 14.738281 -1.332031 13.46875 -0.5625 C 12.195312 0.195312 10.894531 0.578125 9.5625 0.578125 C 8.59375 0.578125 7.742188 0.4375 7.015625 0.15625 C 6.296875 -0.113281 5.695312 -0.5 5.21875 -1 C 4.6875 -1.5625 4.320312 -2.285156 4.125 -3.171875 C 3.9375 -4.066406 3.84375 -5.164062 3.84375 -6.46875 L 3.84375 -16.953125 C 3.84375 -18.210938 3.617188 -19.140625 3.171875 -19.734375 C 2.722656 -20.328125 1.890625 -20.625 0.671875 -20.625 L 0.671875 -21.515625 C 1.554688 -21.429688 2.414062 -21.390625 3.25 -21.390625 C 4.0625 -21.390625 4.835938 -21.4375 5.578125 -21.53125 C 6.316406 -21.625 6.988281 -21.769531 7.59375 -21.96875 L 7.59375 -5.5625 C 7.59375 -4.695312 7.648438 -3.898438 7.765625 -3.171875 C 7.878906 -2.453125 8.15625 -1.867188 8.59375 -1.421875 C 9.039062 -0.972656 9.769531 -0.75 10.78125 -0.75 C 11.863281 -0.75 12.828125 -1.082031 13.671875 -1.75 C 14.523438 -2.414062 15.191406 -3.320312 15.671875 -4.46875 C 16.160156 -5.613281 16.40625 -6.894531 16.40625 -8.3125 L 16.40625 -16.953125 C 16.40625 -18.210938 16.179688 -19.140625 15.734375 -19.734375 C 15.296875 -20.328125 14.460938 -20.625 13.234375 -20.625 L 13.234375 -21.515625 C 14.128906 -21.429688 14.992188 -21.390625 15.828125 -21.390625 C 16.640625 -21.390625 17.410156 -21.4375 18.140625 -21.53125 C 18.878906 -21.625 19.554688 -21.769531 20.171875 -21.96875 Z M 20.171875 -21.96875 "/></g></g></g><g fill="#d4500a" fill-opacity="1"><g transform="translate(125.471249, 77.903452)"><g><path d="M 16.578125 -30.15625 C 19.535156 -30.15625 22.117188 -29.554688 24.328125 -28.359375 C 26.546875 -27.160156 28.265625 -25.441406 29.484375 -23.203125 C 30.710938 -20.960938 31.328125 -18.238281 31.328125 -15.03125 C 31.328125 -11.914062 30.695312 -9.1875 29.4375 -6.84375 C 28.1875 -4.507812 26.441406 -2.6875 24.203125 -1.375 C 21.960938 -0.0703125 19.410156 0.578125 16.546875 0.578125 C 13.585938 0.578125 11 -0.015625 8.78125 -1.203125 C 6.570312 -2.398438 4.851562 -4.125 3.625 -6.375 C 2.40625 -8.632812 1.796875 -11.351562 1.796875 -14.53125 C 1.796875 -17.65625 2.425781 -20.382812 3.6875 -22.71875 C 4.957031 -25.0625 6.695312 -26.882812 8.90625 -28.1875 C 11.125 -29.5 13.679688 -30.15625 16.578125 -30.15625 Z M 16.40625 -29.40625 C 14.851562 -29.40625 13.5 -28.773438 12.34375 -27.515625 C 11.1875 -26.265625 10.296875 -24.539062 9.671875 -22.34375 C 9.046875 -20.144531 8.734375 -17.597656 8.734375 -14.703125 C 8.734375 -11.753906 9.085938 -9.1875 9.796875 -7 C 10.503906 -4.8125 11.460938 -3.125 12.671875 -1.9375 C 13.890625 -0.757812 15.234375 -0.171875 16.703125 -0.171875 C 18.265625 -0.171875 19.625 -0.796875 20.78125 -2.046875 C 21.9375 -3.296875 22.828125 -5.023438 23.453125 -7.234375 C 24.078125 -9.453125 24.390625 -12 24.390625 -14.875 C 24.390625 -17.851562 24.035156 -20.425781 23.328125 -22.59375 C 22.617188 -24.769531 21.65625 -26.445312 20.4375 -27.625 C 19.226562 -28.8125 17.882812 -29.40625 16.40625 -29.40625 Z M 16.40625 -29.40625 "/></g></g></g><g fill="#d4500a" fill-opacity="1"><g transform="translate(158.596228, 77.903452)"><g><path d="M 11.859375 -30.109375 C 13.503906 -30.109375 14.769531 -29.929688 15.65625 -29.578125 C 16.550781 -29.234375 17.316406 -28.867188 17.953125 -28.484375 C 18.285156 -28.285156 18.554688 -28.140625 18.765625 -28.046875 C 18.984375 -27.953125 19.1875 -27.90625 19.375 -27.90625 C 19.65625 -27.90625 19.859375 -28.054688 19.984375 -28.359375 C 20.109375 -28.660156 20.210938 -29.117188 20.296875 -29.734375 L 21.265625 -29.734375 C 21.234375 -29.203125 21.195312 -28.566406 21.15625 -27.828125 C 21.113281 -27.097656 21.082031 -26.132812 21.0625 -24.9375 C 21.050781 -23.738281 21.046875 -22.164062 21.046875 -20.21875 L 20.09375 -20.21875 C 19.976562 -21.664062 19.640625 -23.070312 19.078125 -24.4375 C 18.523438 -25.800781 17.738281 -26.921875 16.71875 -27.796875 C 15.707031 -28.671875 14.460938 -29.109375 12.984375 -29.109375 C 11.648438 -29.109375 10.550781 -28.734375 9.6875 -27.984375 C 8.820312 -27.234375 8.390625 -26.1875 8.390625 -24.84375 C 8.390625 -23.738281 8.664062 -22.785156 9.21875 -21.984375 C 9.78125 -21.191406 10.597656 -20.421875 11.671875 -19.671875 C 12.742188 -18.921875 14.046875 -18.015625 15.578125 -16.953125 C 16.910156 -16.085938 18.101562 -15.222656 19.15625 -14.359375 C 20.21875 -13.503906 21.066406 -12.53125 21.703125 -11.4375 C 22.347656 -10.351562 22.671875 -9.0625 22.671875 -7.5625 C 22.671875 -5.71875 22.191406 -4.195312 21.234375 -3 C 20.273438 -1.8125 19.015625 -0.914062 17.453125 -0.3125 C 15.898438 0.28125 14.191406 0.578125 12.328125 0.578125 C 10.597656 0.578125 9.21875 0.410156 8.1875 0.078125 C 7.15625 -0.253906 6.289062 -0.597656 5.59375 -0.953125 C 4.976562 -1.347656 4.503906 -1.546875 4.171875 -1.546875 C 3.898438 -1.546875 3.703125 -1.390625 3.578125 -1.078125 C 3.453125 -0.773438 3.34375 -0.316406 3.25 0.296875 L 2.296875 0.296875 C 2.347656 -0.367188 2.378906 -1.148438 2.390625 -2.046875 C 2.410156 -2.941406 2.425781 -4.101562 2.4375 -5.53125 C 2.457031 -6.96875 2.46875 -8.785156 2.46875 -10.984375 L 3.421875 -10.984375 C 3.535156 -9.148438 3.847656 -7.429688 4.359375 -5.828125 C 4.878906 -4.222656 5.675781 -2.929688 6.75 -1.953125 C 7.820312 -0.984375 9.25 -0.5 11.03125 -0.5 C 12 -0.5 12.863281 -0.671875 13.625 -1.015625 C 14.394531 -1.367188 15.015625 -1.894531 15.484375 -2.59375 C 15.960938 -3.289062 16.203125 -4.148438 16.203125 -5.171875 C 16.203125 -6.347656 15.929688 -7.363281 15.390625 -8.21875 C 14.847656 -9.082031 14.109375 -9.890625 13.171875 -10.640625 C 12.242188 -11.398438 11.164062 -12.171875 9.9375 -12.953125 C 8.632812 -13.804688 7.410156 -14.664062 6.265625 -15.53125 C 5.117188 -16.394531 4.203125 -17.382812 3.515625 -18.5 C 2.835938 -19.613281 2.5 -20.9375 2.5 -22.46875 C 2.5 -24.21875 2.9375 -25.65625 3.8125 -26.78125 C 4.695312 -27.914062 5.851562 -28.753906 7.28125 -29.296875 C 8.71875 -29.835938 10.242188 -30.109375 11.859375 -30.109375 Z M 11.859375 -30.109375 "/></g></g></g><g transform="matrix(1, 0, 0, 1, 22, 91)"><g clip-path="url(#191202d349)"><g fill="#0f0e0c" fill-opacity="1"><g transform="translate(0.913204, 7.043403)"><g><path d="M 1.921875 0.078125 C 1.585938 0.078125 1.296875 0.0195312 1.046875 -0.09375 C 0.804688 -0.21875 0.617188 -0.390625 0.484375 -0.609375 C 0.347656 -0.828125 0.28125 -1.078125 0.28125 -1.359375 L 0.859375 -1.359375 C 0.859375 -1.179688 0.894531 -1.015625 0.96875 -0.859375 C 1.050781 -0.710938 1.171875 -0.59375 1.328125 -0.5 C 1.492188 -0.414062 1.691406 -0.375 1.921875 -0.375 C 2.222656 -0.375 2.457031 -0.445312 2.625 -0.59375 C 2.800781 -0.75 2.890625 -0.9375 2.890625 -1.15625 C 2.890625 -1.332031 2.847656 -1.472656 2.765625 -1.578125 C 2.691406 -1.691406 2.585938 -1.78125 2.453125 -1.84375 C 2.316406 -1.914062 2.164062 -1.976562 2 -2.03125 C 1.832031 -2.082031 1.65625 -2.144531 1.46875 -2.21875 C 1.113281 -2.332031 0.851562 -2.476562 0.6875 -2.65625 C 0.519531 -2.84375 0.4375 -3.078125 0.4375 -3.359375 C 0.4375 -3.597656 0.492188 -3.8125 0.609375 -4 C 0.722656 -4.1875 0.882812 -4.332031 1.09375 -4.4375 C 1.3125 -4.550781 1.566406 -4.609375 1.859375 -4.609375 C 2.148438 -4.609375 2.398438 -4.550781 2.609375 -4.4375 C 2.828125 -4.332031 2.992188 -4.1875 3.109375 -4 C 3.234375 -3.8125 3.296875 -3.59375 3.296875 -3.34375 L 2.734375 -3.34375 C 2.734375 -3.46875 2.695312 -3.59375 2.625 -3.71875 C 2.5625 -3.84375 2.460938 -3.941406 2.328125 -4.015625 C 2.203125 -4.097656 2.039062 -4.140625 1.84375 -4.140625 C 1.59375 -4.140625 1.390625 -4.078125 1.234375 -3.953125 C 1.078125 -3.828125 1 -3.648438 1 -3.421875 C 1 -3.222656 1.050781 -3.070312 1.15625 -2.96875 C 1.269531 -2.863281 1.425781 -2.773438 1.625 -2.703125 C 1.820312 -2.640625 2.050781 -2.566406 2.3125 -2.484375 C 2.53125 -2.410156 2.722656 -2.320312 2.890625 -2.21875 C 3.066406 -2.113281 3.203125 -1.976562 3.296875 -1.8125 C 3.398438 -1.644531 3.453125 -1.4375 3.453125 -1.1875 C 3.453125 -0.96875 3.394531 -0.757812 3.28125 -0.5625 C 3.164062 -0.375 2.992188 -0.21875 2.765625 -0.09375 C 2.546875 0.0195312 2.265625 0.078125 1.921875 0.078125 Z M 1.921875 0.078125 "/></g></g></g><g fill="#0f0e0c" fill-opacity="1"><g transform="translate(4.64982, 7.043403)"><g><path d="M 0.78125 -3.921875 C 0.664062 -3.921875 0.570312 -3.957031 0.5 -4.03125 C 0.4375 -4.101562 0.40625 -4.191406 0.40625 -4.296875 C 0.40625 -4.398438 0.4375 -4.484375 0.5 -4.546875 C 0.570312 -4.617188 0.664062 -4.65625 0.78125 -4.65625 C 0.882812 -4.65625 0.972656 -4.617188 1.046875 -4.546875 C 1.117188 -4.484375 1.15625 -4.398438 1.15625 -4.296875 C 1.15625 -4.191406 1.117188 -4.101562 1.046875 -4.03125 C 0.972656 -3.957031 0.882812 -3.921875 0.78125 -3.921875 Z M 0.5 0 L 0.5 -3.203125 L 1.046875 -3.203125 L 1.046875 0 Z M 0.5 0 "/></g></g></g><g fill="#0f0e0c" fill-opacity="1"><g transform="translate(6.194894, 7.043403)"><g><path d="M 1.671875 0.078125 C 1.285156 0.078125 0.96875 -0.015625 0.71875 -0.203125 C 0.46875 -0.398438 0.316406 -0.664062 0.265625 -1 L 0.828125 -1 C 0.859375 -0.832031 0.945312 -0.6875 1.09375 -0.5625 C 1.238281 -0.4375 1.4375 -0.375 1.6875 -0.375 C 1.914062 -0.375 2.082031 -0.421875 2.1875 -0.515625 C 2.289062 -0.617188 2.34375 -0.738281 2.34375 -0.875 C 2.34375 -1.070312 2.269531 -1.203125 2.125 -1.265625 C 1.988281 -1.328125 1.796875 -1.382812 1.546875 -1.4375 C 1.367188 -1.46875 1.191406 -1.515625 1.015625 -1.578125 C 0.847656 -1.648438 0.707031 -1.742188 0.59375 -1.859375 C 0.476562 -1.972656 0.421875 -2.128906 0.421875 -2.328125 C 0.421875 -2.609375 0.523438 -2.835938 0.734375 -3.015625 C 0.941406 -3.191406 1.222656 -3.28125 1.578125 -3.28125 C 1.921875 -3.28125 2.203125 -3.195312 2.421875 -3.03125 C 2.640625 -2.863281 2.765625 -2.617188 2.796875 -2.296875 L 2.265625 -2.296875 C 2.242188 -2.460938 2.171875 -2.59375 2.046875 -2.6875 C 1.929688 -2.78125 1.773438 -2.828125 1.578125 -2.828125 C 1.378906 -2.828125 1.226562 -2.785156 1.125 -2.703125 C 1.019531 -2.617188 0.96875 -2.507812 0.96875 -2.375 C 0.96875 -2.25 1.035156 -2.148438 1.171875 -2.078125 C 1.304688 -2.003906 1.492188 -1.941406 1.734375 -1.890625 C 1.929688 -1.847656 2.117188 -1.796875 2.296875 -1.734375 C 2.472656 -1.671875 2.617188 -1.578125 2.734375 -1.453125 C 2.847656 -1.328125 2.90625 -1.148438 2.90625 -0.921875 C 2.90625 -0.628906 2.796875 -0.390625 2.578125 -0.203125 C 2.359375 -0.015625 2.054688 0.078125 1.671875 0.078125 Z M 1.671875 0.078125 "/></g></g></g><g fill="#0f0e0c" fill-opacity="1"><g transform="translate(9.285035, 7.043403)"><g><path d="M 1.71875 0 C 1.425781 0 1.191406 -0.0664062 1.015625 -0.203125 C 0.847656 -0.347656 0.765625 -0.609375 0.765625 -0.984375 L 0.765625 -2.75 L 0.21875 -2.75 L 0.21875 -3.203125 L 0.765625 -3.203125 L 0.84375 -3.984375 L 1.3125 -3.984375 L 1.3125 -3.203125 L 2.25 -3.203125 L 2.25 -2.75 L 1.3125 -2.75 L 1.3125 -0.984375 C 1.3125 -0.773438 1.351562 -0.632812 1.4375 -0.5625 C 1.519531 -0.5 1.664062 -0.46875 1.875 -0.46875 L 2.203125 -0.46875 L 2.203125 0 Z M 1.71875 0 "/></g></g></g><g fill="#0f0e0c" fill-opacity="1"><g transform="translate(11.696378, 7.043403)"><g><path d="M 1.890625 0.078125 C 1.578125 0.078125 1.300781 0.0078125 1.0625 -0.125 C 0.832031 -0.269531 0.648438 -0.46875 0.515625 -0.71875 C 0.378906 -0.96875 0.3125 -1.265625 0.3125 -1.609375 C 0.3125 -1.941406 0.378906 -2.234375 0.515625 -2.484375 C 0.648438 -2.734375 0.832031 -2.925781 1.0625 -3.0625 C 1.300781 -3.207031 1.582031 -3.28125 1.90625 -3.28125 C 2.21875 -3.28125 2.484375 -3.207031 2.703125 -3.0625 C 2.929688 -2.925781 3.101562 -2.742188 3.21875 -2.515625 C 3.34375 -2.296875 3.40625 -2.050781 3.40625 -1.78125 C 3.40625 -1.738281 3.40625 -1.691406 3.40625 -1.640625 C 3.40625 -1.597656 3.40625 -1.546875 3.40625 -1.484375 L 0.84375 -1.484375 C 0.851562 -1.234375 0.910156 -1.023438 1.015625 -0.859375 C 1.117188 -0.703125 1.242188 -0.582031 1.390625 -0.5 C 1.546875 -0.414062 1.710938 -0.375 1.890625 -0.375 C 2.109375 -0.375 2.289062 -0.425781 2.4375 -0.53125 C 2.59375 -0.632812 2.707031 -0.773438 2.78125 -0.953125 L 3.3125 -0.953125 C 3.226562 -0.660156 3.0625 -0.414062 2.8125 -0.21875 C 2.570312 -0.0195312 2.265625 0.078125 1.890625 0.078125 Z M 1.890625 -2.828125 C 1.628906 -2.828125 1.398438 -2.75 1.203125 -2.59375 C 1.003906 -2.4375 0.890625 -2.207031 0.859375 -1.90625 L 2.875 -1.90625 C 2.863281 -2.1875 2.765625 -2.410156 2.578125 -2.578125 C 2.390625 -2.742188 2.160156 -2.828125 1.890625 -2.828125 Z M 1.890625 -2.828125 "/></g></g></g><g fill="#0f0e0c" fill-opacity="1"><g transform="translate(15.37481, 7.043403)"><g><path d="M 0.453125 0 L 0.453125 -3.203125 L 0.9375 -3.203125 L 0.984375 -2.75 C 1.078125 -2.914062 1.210938 -3.046875 1.390625 -3.140625 C 1.566406 -3.234375 1.757812 -3.28125 1.96875 -3.28125 C 2.226562 -3.28125 2.445312 -3.226562 2.625 -3.125 C 2.8125 -3.019531 2.953125 -2.863281 3.046875 -2.65625 C 3.160156 -2.851562 3.316406 -3.003906 3.515625 -3.109375 C 3.710938 -3.222656 3.925781 -3.28125 4.15625 -3.28125 C 4.539062 -3.28125 4.847656 -3.164062 5.078125 -2.9375 C 5.304688 -2.707031 5.421875 -2.351562 5.421875 -1.875 L 5.421875 0 L 4.875 0 L 4.875 -1.8125 C 4.875 -2.144531 4.804688 -2.394531 4.671875 -2.5625 C 4.535156 -2.738281 4.34375 -2.828125 4.09375 -2.828125 C 3.84375 -2.828125 3.628906 -2.722656 3.453125 -2.515625 C 3.285156 -2.316406 3.203125 -2.03125 3.203125 -1.65625 L 3.203125 0 L 2.65625 0 L 2.65625 -1.8125 C 2.65625 -2.144531 2.585938 -2.394531 2.453125 -2.5625 C 2.316406 -2.738281 2.125 -2.828125 1.875 -2.828125 C 1.625 -2.828125 1.410156 -2.722656 1.234375 -2.515625 C 1.066406 -2.316406 0.984375 -2.03125 0.984375 -1.65625 L 0.984375 0 Z M 0.453125 0 "/></g></g></g><g fill="#0f0e0c" fill-opacity="1"><g transform="translate(21.160749, 7.043403)"><g><path d="M 1.515625 0.078125 C 1.242188 0.078125 1.019531 0.0351562 0.84375 -0.046875 C 0.664062 -0.140625 0.535156 -0.257812 0.453125 -0.40625 C 0.367188 -0.5625 0.328125 -0.726562 0.328125 -0.90625 C 0.328125 -1.238281 0.453125 -1.492188 0.703125 -1.671875 C 0.953125 -1.847656 1.289062 -1.9375 1.71875 -1.9375 L 2.59375 -1.9375 L 2.59375 -1.96875 C 2.59375 -2.25 2.515625 -2.460938 2.359375 -2.609375 C 2.210938 -2.753906 2.019531 -2.828125 1.78125 -2.828125 C 1.570312 -2.828125 1.390625 -2.773438 1.234375 -2.671875 C 1.078125 -2.566406 0.976562 -2.410156 0.9375 -2.203125 L 0.390625 -2.203125 C 0.410156 -2.441406 0.488281 -2.640625 0.625 -2.796875 C 0.757812 -2.953125 0.925781 -3.070312 1.125 -3.15625 C 1.332031 -3.238281 1.550781 -3.28125 1.78125 -3.28125 C 2.226562 -3.28125 2.5625 -3.160156 2.78125 -2.921875 C 3.007812 -2.679688 3.125 -2.363281 3.125 -1.96875 L 3.125 0 L 2.640625 0 L 2.609375 -0.578125 C 2.523438 -0.390625 2.394531 -0.234375 2.21875 -0.109375 C 2.039062 0.015625 1.804688 0.078125 1.515625 0.078125 Z M 1.59375 -0.375 C 1.800781 -0.375 1.976562 -0.425781 2.125 -0.53125 C 2.28125 -0.644531 2.394531 -0.785156 2.46875 -0.953125 C 2.550781 -1.128906 2.59375 -1.3125 2.59375 -1.5 L 2.59375 -1.515625 L 1.765625 -1.515625 C 1.441406 -1.515625 1.210938 -1.457031 1.078125 -1.34375 C 0.953125 -1.238281 0.890625 -1.101562 0.890625 -0.9375 C 0.890625 -0.769531 0.953125 -0.632812 1.078125 -0.53125 C 1.203125 -0.425781 1.375 -0.375 1.59375 -0.375 Z M 1.59375 -0.375 "/></g></g></g><g fill="#0f0e0c" fill-opacity="1"><g transform="translate(24.658171, 7.043403)"><g/></g></g><g fill="#0f0e0c" fill-opacity="1"><g transform="translate(26.371325, 7.043403)"><g><path d="M 1.90625 0.078125 C 1.601562 0.078125 1.332031 0.0078125 1.09375 -0.125 C 0.851562 -0.269531 0.660156 -0.46875 0.515625 -0.71875 C 0.378906 -0.96875 0.3125 -1.265625 0.3125 -1.609375 C 0.3125 -1.941406 0.378906 -2.234375 0.515625 -2.484375 C 0.660156 -2.742188 0.851562 -2.941406 1.09375 -3.078125 C 1.34375 -3.210938 1.617188 -3.28125 1.921875 -3.28125 C 2.222656 -3.28125 2.492188 -3.210938 2.734375 -3.078125 C 2.972656 -2.941406 3.160156 -2.742188 3.296875 -2.484375 C 3.441406 -2.234375 3.515625 -1.941406 3.515625 -1.609375 C 3.515625 -1.265625 3.441406 -0.96875 3.296875 -0.71875 C 3.160156 -0.46875 2.96875 -0.269531 2.71875 -0.125 C 2.476562 0.0078125 2.207031 0.078125 1.90625 0.078125 Z M 1.90625 -0.390625 C 2.09375 -0.390625 2.265625 -0.429688 2.421875 -0.515625 C 2.585938 -0.609375 2.71875 -0.742188 2.8125 -0.921875 C 2.914062 -1.109375 2.96875 -1.335938 2.96875 -1.609375 C 2.96875 -1.867188 2.914062 -2.085938 2.8125 -2.265625 C 2.71875 -2.453125 2.585938 -2.59375 2.421875 -2.6875 C 2.265625 -2.78125 2.097656 -2.828125 1.921875 -2.828125 C 1.734375 -2.828125 1.5625 -2.78125 1.40625 -2.6875 C 1.25 -2.59375 1.117188 -2.453125 1.015625 -2.265625 C 0.910156 -2.085938 0.859375 -1.867188 0.859375 -1.609375 C 0.859375 -1.335938 0.910156 -1.109375 1.015625 -0.921875 C 1.117188 -0.742188 1.25 -0.609375 1.40625 -0.515625 C 1.5625 -0.429688 1.726562 -0.390625 1.90625 -0.390625 Z M 1.90625 -0.390625 "/></g></g></g><g fill="#0f0e0c" fill-opacity="1"><g transform="translate(30.198446, 7.043403)"><g><path d="M 0.453125 1.421875 L 0.453125 -3.203125 L 0.9375 -3.203125 L 0.984375 -2.671875 C 1.085938 -2.828125 1.234375 -2.96875 1.421875 -3.09375 C 1.617188 -3.21875 1.867188 -3.28125 2.171875 -3.28125 C 2.484375 -3.28125 2.757812 -3.207031 3 -3.0625 C 3.238281 -2.914062 3.421875 -2.710938 3.546875 -2.453125 C 3.679688 -2.203125 3.75 -1.914062 3.75 -1.59375 C 3.75 -1.269531 3.679688 -0.984375 3.546875 -0.734375 C 3.421875 -0.484375 3.238281 -0.285156 3 -0.140625 C 2.757812 0.00390625 2.476562 0.078125 2.15625 0.078125 C 1.894531 0.078125 1.660156 0.0234375 1.453125 -0.078125 C 1.253906 -0.191406 1.097656 -0.34375 0.984375 -0.53125 L 0.984375 1.421875 Z M 2.109375 -0.390625 C 2.316406 -0.390625 2.503906 -0.441406 2.671875 -0.546875 C 2.835938 -0.648438 2.96875 -0.789062 3.0625 -0.96875 C 3.15625 -1.144531 3.203125 -1.359375 3.203125 -1.609375 C 3.203125 -1.847656 3.15625 -2.054688 3.0625 -2.234375 C 2.96875 -2.421875 2.835938 -2.5625 2.671875 -2.65625 C 2.503906 -2.757812 2.316406 -2.8125 2.109375 -2.8125 C 1.890625 -2.8125 1.695312 -2.757812 1.53125 -2.65625 C 1.363281 -2.5625 1.234375 -2.421875 1.140625 -2.234375 C 1.046875 -2.054688 1 -1.847656 1 -1.609375 C 1 -1.359375 1.046875 -1.144531 1.140625 -0.96875 C 1.234375 -0.789062 1.363281 -0.648438 1.53125 -0.546875 C 1.695312 -0.441406 1.890625 -0.390625 2.109375 -0.390625 Z M 2.109375 -0.390625 "/></g></g></g><g fill="#0f0e0c" fill-opacity="1"><g transform="translate(34.2583, 7.043403)"><g><path d="M 1.890625 0.078125 C 1.578125 0.078125 1.300781 0.0078125 1.0625 -0.125 C 0.832031 -0.269531 0.648438 -0.46875 0.515625 -0.71875 C 0.378906 -0.96875 0.3125 -1.265625 0.3125 -1.609375 C 0.3125 -1.941406 0.378906 -2.234375 0.515625 -2.484375 C 0.648438 -2.734375 0.832031 -2.925781 1.0625 -3.0625 C 1.300781 -3.207031 1.582031 -3.28125 1.90625 -3.28125 C 2.21875 -3.28125 2.484375 -3.207031 2.703125 -3.0625 C 2.929688 -2.925781 3.101562 -2.742188 3.21875 -2.515625 C 3.34375 -2.296875 3.40625 -2.050781 3.40625 -1.78125 C 3.40625 -1.738281 3.40625 -1.691406 3.40625 -1.640625 C 3.40625 -1.597656 3.40625 -1.546875 3.40625 -1.484375 L 0.84375 -1.484375 C 0.851562 -1.234375 0.910156 -1.023438 1.015625 -0.859375 C 1.117188 -0.703125 1.242188 -0.582031 1.390625 -0.5 C 1.546875 -0.414062 1.710938 -0.375 1.890625 -0.375 C 2.109375 -0.375 2.289062 -0.425781 2.4375 -0.53125 C 2.59375 -0.632812 2.707031 -0.773438 2.78125 -0.953125 L 3.3125 -0.953125 C 3.226562 -0.660156 3.0625 -0.414062 2.8125 -0.21875 C 2.570312 -0.0195312 2.265625 0.078125 1.890625 0.078125 Z M 1.890625 -2.828125 C 1.628906 -2.828125 1.398438 -2.75 1.203125 -2.59375 C 1.003906 -2.4375 0.890625 -2.207031 0.859375 -1.90625 L 2.875 -1.90625 C 2.863281 -2.1875 2.765625 -2.410156 2.578125 -2.578125 C 2.390625 -2.742188 2.160156 -2.828125 1.890625 -2.828125 Z M 1.890625 -2.828125 "/></g></g></g><g fill="#0f0e0c" fill-opacity="1"><g transform="translate(37.936732, 7.043403)"><g><path d="M 0.453125 0 L 0.453125 -3.203125 L 0.9375 -3.203125 L 0.984375 -2.59375 C 1.078125 -2.800781 1.222656 -2.96875 1.421875 -3.09375 C 1.628906 -3.21875 1.882812 -3.28125 2.1875 -3.28125 L 2.1875 -2.71875 L 2.03125 -2.71875 C 1.84375 -2.71875 1.671875 -2.679688 1.515625 -2.609375 C 1.359375 -2.546875 1.226562 -2.429688 1.125 -2.265625 C 1.03125 -2.109375 0.984375 -1.894531 0.984375 -1.625 L 0.984375 0 Z M 0.453125 0 "/></g></g></g><g fill="#0f0e0c" fill-opacity="1"><g transform="translate(40.283431, 7.043403)"><g><path d="M 1.515625 0.078125 C 1.242188 0.078125 1.019531 0.0351562 0.84375 -0.046875 C 0.664062 -0.140625 0.535156 -0.257812 0.453125 -0.40625 C 0.367188 -0.5625 0.328125 -0.726562 0.328125 -0.90625 C 0.328125 -1.238281 0.453125 -1.492188 0.703125 -1.671875 C 0.953125 -1.847656 1.289062 -1.9375 1.71875 -1.9375 L 2.59375 -1.9375 L 2.59375 -1.96875 C 2.59375 -2.25 2.515625 -2.460938 2.359375 -2.609375 C 2.210938 -2.753906 2.019531 -2.828125 1.78125 -2.828125 C 1.570312 -2.828125 1.390625 -2.773438 1.234375 -2.671875 C 1.078125 -2.566406 0.976562 -2.410156 0.9375 -2.203125 L 0.390625 -2.203125 C 0.410156 -2.441406 0.488281 -2.640625 0.625 -2.796875 C 0.757812 -2.953125 0.925781 -3.070312 1.125 -3.15625 C 1.332031 -3.238281 1.550781 -3.28125 1.78125 -3.28125 C 2.226562 -3.28125 2.5625 -3.160156 2.78125 -2.921875 C 3.007812 -2.679688 3.125 -2.363281 3.125 -1.96875 L 3.125 0 L 2.640625 0 L 2.609375 -0.578125 C 2.523438 -0.390625 2.394531 -0.234375 2.21875 -0.109375 C 2.039062 0.015625 1.804688 0.078125 1.515625 0.078125 Z M 1.59375 -0.375 C 1.800781 -0.375 1.976562 -0.425781 2.125 -0.53125 C 2.28125 -0.644531 2.394531 -0.785156 2.46875 -0.953125 C 2.550781 -1.128906 2.59375 -1.3125 2.59375 -1.5 L 2.59375 -1.515625 L 1.765625 -1.515625 C 1.441406 -1.515625 1.210938 -1.457031 1.078125 -1.34375 C 0.953125 -1.238281 0.890625 -1.101562 0.890625 -0.9375 C 0.890625 -0.769531 0.953125 -0.632812 1.078125 -0.53125 C 1.203125 -0.425781 1.375 -0.375 1.59375 -0.375 Z M 1.59375 -0.375 "/></g></g></g><g fill="#0f0e0c" fill-opacity="1"><g transform="translate(43.690348, 7.043403)"><g><path d="M 1.71875 0 C 1.425781 0 1.191406 -0.0664062 1.015625 -0.203125 C 0.847656 -0.347656 0.765625 -0.609375 0.765625 -0.984375 L 0.765625 -2.75 L 0.21875 -2.75 L 0.21875 -3.203125 L 0.765625 -3.203125 L 0.84375 -3.984375 L 1.3125 -3.984375 L 1.3125 -3.203125 L 2.25 -3.203125 L 2.25 -2.75 L 1.3125 -2.75 L 1.3125 -0.984375 C 1.3125 -0.773438 1.351562 -0.632812 1.4375 -0.5625 C 1.519531 -0.5 1.664062 -0.46875 1.875 -0.46875 L 2.203125 -0.46875 L 2.203125 0 Z M 1.71875 0 "/></g></g></g><g fill="#0f0e0c" fill-opacity="1"><g transform="translate(46.192197, 7.043403)"><g><path d="M 0.78125 -3.921875 C 0.664062 -3.921875 0.570312 -3.957031 0.5 -4.03125 C 0.4375 -4.101562 0.40625 -4.191406 0.40625 -4.296875 C 0.40625 -4.398438 0.4375 -4.484375 0.5 -4.546875 C 0.570312 -4.617188 0.664062 -4.65625 0.78125 -4.65625 C 0.882812 -4.65625 0.972656 -4.617188 1.046875 -4.546875 C 1.117188 -4.484375 1.15625 -4.398438 1.15625 -4.296875 C 1.15625 -4.191406 1.117188 -4.101562 1.046875 -4.03125 C 0.972656 -3.957031 0.882812 -3.921875 0.78125 -3.921875 Z M 0.5 0 L 0.5 -3.203125 L 1.046875 -3.203125 L 1.046875 0 Z M 0.5 0 "/></g></g></g><g fill="#0f0e0c" fill-opacity="1"><g transform="translate(47.737271, 7.043403)"><g><path d="M 1.375 0 L 0.15625 -3.203125 L 0.71875 -3.203125 L 1.6875 -0.53125 L 2.65625 -3.203125 L 3.21875 -3.203125 L 2 0 Z M 1.375 0 "/></g></g></g><g fill="#0f0e0c" fill-opacity="1"><g transform="translate(50.943778, 7.043403)"><g><path d="M 1.90625 0.078125 C 1.601562 0.078125 1.332031 0.0078125 1.09375 -0.125 C 0.851562 -0.269531 0.660156 -0.46875 0.515625 -0.71875 C 0.378906 -0.96875 0.3125 -1.265625 0.3125 -1.609375 C 0.3125 -1.941406 0.378906 -2.234375 0.515625 -2.484375 C 0.660156 -2.742188 0.851562 -2.941406 1.09375 -3.078125 C 1.34375 -3.210938 1.617188 -3.28125 1.921875 -3.28125 C 2.222656 -3.28125 2.492188 -3.210938 2.734375 -3.078125 C 2.972656 -2.941406 3.160156 -2.742188 3.296875 -2.484375 C 3.441406 -2.234375 3.515625 -1.941406 3.515625 -1.609375 C 3.515625 -1.265625 3.441406 -0.96875 3.296875 -0.71875 C 3.160156 -0.46875 2.96875 -0.269531 2.71875 -0.125 C 2.476562 0.0078125 2.207031 0.078125 1.90625 0.078125 Z M 1.90625 -0.390625 C 2.09375 -0.390625 2.265625 -0.429688 2.421875 -0.515625 C 2.585938 -0.609375 2.71875 -0.742188 2.8125 -0.921875 C 2.914062 -1.109375 2.96875 -1.335938 2.96875 -1.609375 C 2.96875 -1.867188 2.914062 -2.085938 2.8125 -2.265625 C 2.71875 -2.453125 2.585938 -2.59375 2.421875 -2.6875 C 2.265625 -2.78125 2.097656 -2.828125 1.921875 -2.828125 C 1.734375 -2.828125 1.5625 -2.78125 1.40625 -2.6875 C 1.25 -2.59375 1.117188 -2.453125 1.015625 -2.265625 C 0.910156 -2.085938 0.859375 -1.867188 0.859375 -1.609375 C 0.859375 -1.335938 0.910156 -1.109375 1.015625 -0.921875 C 1.117188 -0.742188 1.25 -0.609375 1.40625 -0.515625 C 1.5625 -0.429688 1.726562 -0.390625 1.90625 -0.390625 Z M 1.90625 -0.390625 "/></g></g></g><g fill="#0f0e0c" fill-opacity="1"><g transform="translate(54.770899, 7.043403)"><g/></g></g><g fill="#0f0e0c" fill-opacity="1"><g transform="translate(56.484053, 7.043403)"><g><path d="M 0.453125 1.421875 L 0.453125 -3.203125 L 0.9375 -3.203125 L 0.984375 -2.671875 C 1.085938 -2.828125 1.234375 -2.96875 1.421875 -3.09375 C 1.617188 -3.21875 1.867188 -3.28125 2.171875 -3.28125 C 2.484375 -3.28125 2.757812 -3.207031 3 -3.0625 C 3.238281 -2.914062 3.421875 -2.710938 3.546875 -2.453125 C 3.679688 -2.203125 3.75 -1.914062 3.75 -1.59375 C 3.75 -1.269531 3.679688 -0.984375 3.546875 -0.734375 C 3.421875 -0.484375 3.238281 -0.285156 3 -0.140625 C 2.757812 0.00390625 2.476562 0.078125 2.15625 0.078125 C 1.894531 0.078125 1.660156 0.0234375 1.453125 -0.078125 C 1.253906 -0.191406 1.097656 -0.34375 0.984375 -0.53125 L 0.984375 1.421875 Z M 2.109375 -0.390625 C 2.316406 -0.390625 2.503906 -0.441406 2.671875 -0.546875 C 2.835938 -0.648438 2.96875 -0.789062 3.0625 -0.96875 C 3.15625 -1.144531 3.203125 -1.359375 3.203125 -1.609375 C 3.203125 -1.847656 3.15625 -2.054688 3.0625 -2.234375 C 2.96875 -2.421875 2.835938 -2.5625 2.671875 -2.65625 C 2.503906 -2.757812 2.316406 -2.8125 2.109375 -2.8125 C 1.890625 -2.8125 1.695312 -2.757812 1.53125 -2.65625 C 1.363281 -2.5625 1.234375 -2.421875 1.140625 -2.234375 C 1.046875 -2.054688 1 -1.847656 1 -1.609375 C 1 -1.359375 1.046875 -1.144531 1.140625 -0.96875 C 1.234375 -0.789062 1.363281 -0.648438 1.53125 -0.546875 C 1.695312 -0.441406 1.890625 -0.390625 2.109375 -0.390625 Z M 2.109375 -0.390625 "/></g></g></g><g fill="#0f0e0c" fill-opacity="1"><g transform="translate(60.543906, 7.043403)"><g><path d="M 1.515625 0.078125 C 1.242188 0.078125 1.019531 0.0351562 0.84375 -0.046875 C 0.664062 -0.140625 0.535156 -0.257812 0.453125 -0.40625 C 0.367188 -0.5625 0.328125 -0.726562 0.328125 -0.90625 C 0.328125 -1.238281 0.453125 -1.492188 0.703125 -1.671875 C 0.953125 -1.847656 1.289062 -1.9375 1.71875 -1.9375 L 2.59375 -1.9375 L 2.59375 -1.96875 C 2.59375 -2.25 2.515625 -2.460938 2.359375 -2.609375 C 2.210938 -2.753906 2.019531 -2.828125 1.78125 -2.828125 C 1.570312 -2.828125 1.390625 -2.773438 1.234375 -2.671875 C 1.078125 -2.566406 0.976562 -2.410156 0.9375 -2.203125 L 0.390625 -2.203125 C 0.410156 -2.441406 0.488281 -2.640625 0.625 -2.796875 C 0.757812 -2.953125 0.925781 -3.070312 1.125 -3.15625 C 1.332031 -3.238281 1.550781 -3.28125 1.78125 -3.28125 C 2.226562 -3.28125 2.5625 -3.160156 2.78125 -2.921875 C 3.007812 -2.679688 3.125 -2.363281 3.125 -1.96875 L 3.125 0 L 2.640625 0 L 2.609375 -0.578125 C 2.523438 -0.390625 2.394531 -0.234375 2.21875 -0.109375 C 2.039062 0.015625 1.804688 0.078125 1.515625 0.078125 Z M 1.59375 -0.375 C 1.800781 -0.375 1.976562 -0.425781 2.125 -0.53125 C 2.28125 -0.644531 2.394531 -0.785156 2.46875 -0.953125 C 2.550781 -1.128906 2.59375 -1.3125 2.59375 -1.5 L 2.59375 -1.515625 L 1.765625 -1.515625 C 1.441406 -1.515625 1.210938 -1.457031 1.078125 -1.34375 C 0.953125 -1.238281 0.890625 -1.101562 0.890625 -0.9375 C 0.890625 -0.769531 0.953125 -0.632812 1.078125 -0.53125 C 1.203125 -0.425781 1.375 -0.375 1.59375 -0.375 Z M 1.59375 -0.375 "/></g></g></g><g fill="#0f0e0c" fill-opacity="1"><g transform="translate(64.041329, 7.043403)"><g><path d="M 0.453125 0 L 0.453125 -3.203125 L 0.9375 -3.203125 L 0.984375 -2.59375 C 1.078125 -2.800781 1.222656 -2.96875 1.421875 -3.09375 C 1.628906 -3.21875 1.882812 -3.28125 2.1875 -3.28125 L 2.1875 -2.71875 L 2.03125 -2.71875 C 1.84375 -2.71875 1.671875 -2.679688 1.515625 -2.609375 C 1.359375 -2.546875 1.226562 -2.429688 1.125 -2.265625 C 1.03125 -2.109375 0.984375 -1.894531 0.984375 -1.625 L 0.984375 0 Z M 0.453125 0 "/></g></g></g><g fill="#0f0e0c" fill-opacity="1"><g transform="translate(66.388028, 7.043403)"><g><path d="M 1.515625 0.078125 C 1.242188 0.078125 1.019531 0.0351562 0.84375 -0.046875 C 0.664062 -0.140625 0.535156 -0.257812 0.453125 -0.40625 C 0.367188 -0.5625 0.328125 -0.726562 0.328125 -0.90625 C 0.328125 -1.238281 0.453125 -1.492188 0.703125 -1.671875 C 0.953125 -1.847656 1.289062 -1.9375 1.71875 -1.9375 L 2.59375 -1.9375 L 2.59375 -1.96875 C 2.59375 -2.25 2.515625 -2.460938 2.359375 -2.609375 C 2.210938 -2.753906 2.019531 -2.828125 1.78125 -2.828125 C 1.570312 -2.828125 1.390625 -2.773438 1.234375 -2.671875 C 1.078125 -2.566406 0.976562 -2.410156 0.9375 -2.203125 L 0.390625 -2.203125 C 0.410156 -2.441406 0.488281 -2.640625 0.625 -2.796875 C 0.757812 -2.953125 0.925781 -3.070312 1.125 -3.15625 C 1.332031 -3.238281 1.550781 -3.28125 1.78125 -3.28125 C 2.226562 -3.28125 2.5625 -3.160156 2.78125 -2.921875 C 3.007812 -2.679688 3.125 -2.363281 3.125 -1.96875 L 3.125 0 L 2.640625 0 L 2.609375 -0.578125 C 2.523438 -0.390625 2.394531 -0.234375 2.21875 -0.109375 C 2.039062 0.015625 1.804688 0.078125 1.515625 0.078125 Z M 1.59375 -0.375 C 1.800781 -0.375 1.976562 -0.425781 2.125 -0.53125 C 2.28125 -0.644531 2.394531 -0.785156 2.46875 -0.953125 C 2.550781 -1.128906 2.59375 -1.3125 2.59375 -1.5 L 2.59375 -1.515625 L 1.765625 -1.515625 C 1.441406 -1.515625 1.210938 -1.457031 1.078125 -1.34375 C 0.953125 -1.238281 0.890625 -1.101562 0.890625 -0.9375 C 0.890625 -0.769531 0.953125 -0.632812 1.078125 -0.53125 C 1.203125 -0.425781 1.375 -0.375 1.59375 -0.375 Z M 1.59375 -0.375 "/></g></g></g><g fill="#0f0e0c" fill-opacity="1"><g transform="translate(69.88545, 7.043403)"><g/></g></g><g fill="#0f0e0c" fill-opacity="1"><g transform="translate(71.598604, 7.043403)"><g><path d="M 0.453125 0 L 0.453125 -3.203125 L 0.9375 -3.203125 L 0.984375 -2.59375 C 1.078125 -2.800781 1.222656 -2.96875 1.421875 -3.09375 C 1.628906 -3.21875 1.882812 -3.28125 2.1875 -3.28125 L 2.1875 -2.71875 L 2.03125 -2.71875 C 1.84375 -2.71875 1.671875 -2.679688 1.515625 -2.609375 C 1.359375 -2.546875 1.226562 -2.429688 1.125 -2.265625 C 1.03125 -2.109375 0.984375 -1.894531 0.984375 -1.625 L 0.984375 0 Z M 0.453125 0 "/></g></g></g><g fill="#0f0e0c" fill-opacity="1"><g transform="translate(73.822476, 7.043403)"><g><path d="M 1.890625 0.078125 C 1.578125 0.078125 1.300781 0.0078125 1.0625 -0.125 C 0.832031 -0.269531 0.648438 -0.46875 0.515625 -0.71875 C 0.378906 -0.96875 0.3125 -1.265625 0.3125 -1.609375 C 0.3125 -1.941406 0.378906 -2.234375 0.515625 -2.484375 C 0.648438 -2.734375 0.832031 -2.925781 1.0625 -3.0625 C 1.300781 -3.207031 1.582031 -3.28125 1.90625 -3.28125 C 2.21875 -3.28125 2.484375 -3.207031 2.703125 -3.0625 C 2.929688 -2.925781 3.101562 -2.742188 3.21875 -2.515625 C 3.34375 -2.296875 3.40625 -2.050781 3.40625 -1.78125 C 3.40625 -1.738281 3.40625 -1.691406 3.40625 -1.640625 C 3.40625 -1.597656 3.40625 -1.546875 3.40625 -1.484375 L 0.84375 -1.484375 C 0.851562 -1.234375 0.910156 -1.023438 1.015625 -0.859375 C 1.117188 -0.703125 1.242188 -0.582031 1.390625 -0.5 C 1.546875 -0.414062 1.710938 -0.375 1.890625 -0.375 C 2.109375 -0.375 2.289062 -0.425781 2.4375 -0.53125 C 2.59375 -0.632812 2.707031 -0.773438 2.78125 -0.953125 L 3.3125 -0.953125 C 3.226562 -0.660156 3.0625 -0.414062 2.8125 -0.21875 C 2.570312 -0.0195312 2.265625 0.078125 1.890625 0.078125 Z M 1.890625 -2.828125 C 1.628906 -2.828125 1.398438 -2.75 1.203125 -2.59375 C 1.003906 -2.4375 0.890625 -2.207031 0.859375 -1.90625 L 2.875 -1.90625 C 2.863281 -2.1875 2.765625 -2.410156 2.578125 -2.578125 C 2.390625 -2.742188 2.160156 -2.828125 1.890625 -2.828125 Z M 1.890625 -2.828125 "/></g></g></g><g fill="#0f0e0c" fill-opacity="1"><g transform="translate(77.500909, 7.043403)"><g><path d="M 1.671875 0.078125 C 1.285156 0.078125 0.96875 -0.015625 0.71875 -0.203125 C 0.46875 -0.398438 0.316406 -0.664062 0.265625 -1 L 0.828125 -1 C 0.859375 -0.832031 0.945312 -0.6875 1.09375 -0.5625 C 1.238281 -0.4375 1.4375 -0.375 1.6875 -0.375 C 1.914062 -0.375 2.082031 -0.421875 2.1875 -0.515625 C 2.289062 -0.617188 2.34375 -0.738281 2.34375 -0.875 C 2.34375 -1.070312 2.269531 -1.203125 2.125 -1.265625 C 1.988281 -1.328125 1.796875 -1.382812 1.546875 -1.4375 C 1.367188 -1.46875 1.191406 -1.515625 1.015625 -1.578125 C 0.847656 -1.648438 0.707031 -1.742188 0.59375 -1.859375 C 0.476562 -1.972656 0.421875 -2.128906 0.421875 -2.328125 C 0.421875 -2.609375 0.523438 -2.835938 0.734375 -3.015625 C 0.941406 -3.191406 1.222656 -3.28125 1.578125 -3.28125 C 1.921875 -3.28125 2.203125 -3.195312 2.421875 -3.03125 C 2.640625 -2.863281 2.765625 -2.617188 2.796875 -2.296875 L 2.265625 -2.296875 C 2.242188 -2.460938 2.171875 -2.59375 2.046875 -2.6875 C 1.929688 -2.78125 1.773438 -2.828125 1.578125 -2.828125 C 1.378906 -2.828125 1.226562 -2.785156 1.125 -2.703125 C 1.019531 -2.617188 0.96875 -2.507812 0.96875 -2.375 C 0.96875 -2.25 1.035156 -2.148438 1.171875 -2.078125 C 1.304688 -2.003906 1.492188 -1.941406 1.734375 -1.890625 C 1.929688 -1.847656 2.117188 -1.796875 2.296875 -1.734375 C 2.472656 -1.671875 2.617188 -1.578125 2.734375 -1.453125 C 2.847656 -1.328125 2.90625 -1.148438 2.90625 -0.921875 C 2.90625 -0.628906 2.796875 -0.390625 2.578125 -0.203125 C 2.359375 -0.015625 2.054688 0.078125 1.671875 0.078125 Z M 1.671875 0.078125 "/></g></g></g><g fill="#0f0e0c" fill-opacity="1"><g transform="translate(80.591049, 7.043403)"><g><path d="M 1.71875 0 C 1.425781 0 1.191406 -0.0664062 1.015625 -0.203125 C 0.847656 -0.347656 0.765625 -0.609375 0.765625 -0.984375 L 0.765625 -2.75 L 0.21875 -2.75 L 0.21875 -3.203125 L 0.765625 -3.203125 L 0.84375 -3.984375 L 1.3125 -3.984375 L 1.3125 -3.203125 L 2.25 -3.203125 L 2.25 -2.75 L 1.3125 -2.75 L 1.3125 -0.984375 C 1.3125 -0.773438 1.351562 -0.632812 1.4375 -0.5625 C 1.519531 -0.5 1.664062 -0.46875 1.875 -0.46875 L 2.203125 -0.46875 L 2.203125 0 Z M 1.71875 0 "/></g></g></g><g fill="#0f0e0c" fill-opacity="1"><g transform="translate(83.092898, 7.043403)"><g><path d="M 1.515625 0.078125 C 1.242188 0.078125 1.019531 0.0351562 0.84375 -0.046875 C 0.664062 -0.140625 0.535156 -0.257812 0.453125 -0.40625 C 0.367188 -0.5625 0.328125 -0.726562 0.328125 -0.90625 C 0.328125 -1.238281 0.453125 -1.492188 0.703125 -1.671875 C 0.953125 -1.847656 1.289062 -1.9375 1.71875 -1.9375 L 2.59375 -1.9375 L 2.59375 -1.96875 C 2.59375 -2.25 2.515625 -2.460938 2.359375 -2.609375 C 2.210938 -2.753906 2.019531 -2.828125 1.78125 -2.828125 C 1.570312 -2.828125 1.390625 -2.773438 1.234375 -2.671875 C 1.078125 -2.566406 0.976562 -2.410156 0.9375 -2.203125 L 0.390625 -2.203125 C 0.410156 -2.441406 0.488281 -2.640625 0.625 -2.796875 C 0.757812 -2.953125 0.925781 -3.070312 1.125 -3.15625 C 1.332031 -3.238281 1.550781 -3.28125 1.78125 -3.28125 C 2.226562 -3.28125 2.5625 -3.160156 2.78125 -2.921875 C 3.007812 -2.679688 3.125 -2.363281 3.125 -1.96875 L 3.125 0 L 2.640625 0 L 2.609375 -0.578125 C 2.523438 -0.390625 2.394531 -0.234375 2.21875 -0.109375 C 2.039062 0.015625 1.804688 0.078125 1.515625 0.078125 Z M 1.59375 -0.375 C 1.800781 -0.375 1.976562 -0.425781 2.125 -0.53125 C 2.28125 -0.644531 2.394531 -0.785156 2.46875 -0.953125 C 2.550781 -1.128906 2.59375 -1.3125 2.59375 -1.5 L 2.59375 -1.515625 L 1.765625 -1.515625 C 1.441406 -1.515625 1.210938 -1.457031 1.078125 -1.34375 C 0.953125 -1.238281 0.890625 -1.101562 0.890625 -0.9375 C 0.890625 -0.769531 0.953125 -0.632812 1.078125 -0.53125 C 1.203125 -0.425781 1.375 -0.375 1.59375 -0.375 Z M 1.59375 -0.375 "/></g></g></g><g fill="#0f0e0c" fill-opacity="1"><g transform="translate(86.59032, 7.043403)"><g><path d="M 1.625 0.078125 C 1.238281 0.078125 0.929688 -0.0351562 0.703125 -0.265625 C 0.484375 -0.492188 0.375 -0.847656 0.375 -1.328125 L 0.375 -3.203125 L 0.921875 -3.203125 L 0.921875 -1.390625 C 0.921875 -0.722656 1.191406 -0.390625 1.734375 -0.390625 C 2.015625 -0.390625 2.242188 -0.488281 2.421875 -0.6875 C 2.609375 -0.882812 2.703125 -1.171875 2.703125 -1.546875 L 2.703125 -3.203125 L 3.25 -3.203125 L 3.25 0 L 2.765625 0 L 2.71875 -0.578125 C 2.625 -0.367188 2.476562 -0.207031 2.28125 -0.09375 C 2.082031 0.0195312 1.863281 0.078125 1.625 0.078125 Z M 1.625 0.078125 "/></g></g></g><g fill="#0f0e0c" fill-opacity="1"><g transform="translate(90.288144, 7.043403)"><g><path d="M 0.453125 0 L 0.453125 -3.203125 L 0.9375 -3.203125 L 0.984375 -2.59375 C 1.078125 -2.800781 1.222656 -2.96875 1.421875 -3.09375 C 1.628906 -3.21875 1.882812 -3.28125 2.1875 -3.28125 L 2.1875 -2.71875 L 2.03125 -2.71875 C 1.84375 -2.71875 1.671875 -2.679688 1.515625 -2.609375 C 1.359375 -2.546875 1.226562 -2.429688 1.125 -2.265625 C 1.03125 -2.109375 0.984375 -1.894531 0.984375 -1.625 L 0.984375 0 Z M 0.453125 0 "/></g></g></g><g fill="#0f0e0c" fill-opacity="1"><g transform="translate(92.634843, 7.043403)"><g><path d="M 1.515625 0.078125 C 1.242188 0.078125 1.019531 0.0351562 0.84375 -0.046875 C 0.664062 -0.140625 0.535156 -0.257812 0.453125 -0.40625 C 0.367188 -0.5625 0.328125 -0.726562 0.328125 -0.90625 C 0.328125 -1.238281 0.453125 -1.492188 0.703125 -1.671875 C 0.953125 -1.847656 1.289062 -1.9375 1.71875 -1.9375 L 2.59375 -1.9375 L 2.59375 -1.96875 C 2.59375 -2.25 2.515625 -2.460938 2.359375 -2.609375 C 2.210938 -2.753906 2.019531 -2.828125 1.78125 -2.828125 C 1.570312 -2.828125 1.390625 -2.773438 1.234375 -2.671875 C 1.078125 -2.566406 0.976562 -2.410156 0.9375 -2.203125 L 0.390625 -2.203125 C 0.410156 -2.441406 0.488281 -2.640625 0.625 -2.796875 C 0.757812 -2.953125 0.925781 -3.070312 1.125 -3.15625 C 1.332031 -3.238281 1.550781 -3.28125 1.78125 -3.28125 C 2.226562 -3.28125 2.5625 -3.160156 2.78125 -2.921875 C 3.007812 -2.679688 3.125 -2.363281 3.125 -1.96875 L 3.125 0 L 2.640625 0 L 2.609375 -0.578125 C 2.523438 -0.390625 2.394531 -0.234375 2.21875 -0.109375 C 2.039062 0.015625 1.804688 0.078125 1.515625 0.078125 Z M 1.59375 -0.375 C 1.800781 -0.375 1.976562 -0.425781 2.125 -0.53125 C 2.28125 -0.644531 2.394531 -0.785156 2.46875 -0.953125 C 2.550781 -1.128906 2.59375 -1.3125 2.59375 -1.5 L 2.59375 -1.515625 L 1.765625 -1.515625 C 1.441406 -1.515625 1.210938 -1.457031 1.078125 -1.34375 C 0.953125 -1.238281 0.890625 -1.101562 0.890625 -0.9375 C 0.890625 -0.769531 0.953125 -0.632812 1.078125 -0.53125 C 1.203125 -0.425781 1.375 -0.375 1.59375 -0.375 Z M 1.59375 -0.375 "/></g></g></g><g fill="#0f0e0c" fill-opacity="1"><g transform="translate(96.132265, 7.043403)"><g><path d="M 0.453125 0 L 0.453125 -3.203125 L 0.9375 -3.203125 L 0.96875 -2.625 C 1.070312 -2.832031 1.21875 -2.992188 1.40625 -3.109375 C 1.601562 -3.222656 1.828125 -3.28125 2.078125 -3.28125 C 2.453125 -3.28125 2.753906 -3.164062 2.984375 -2.9375 C 3.210938 -2.707031 3.328125 -2.351562 3.328125 -1.875 L 3.328125 0 L 2.78125 0 L 2.78125 -1.8125 C 2.78125 -2.488281 2.503906 -2.828125 1.953125 -2.828125 C 1.679688 -2.828125 1.453125 -2.722656 1.265625 -2.515625 C 1.078125 -2.316406 0.984375 -2.03125 0.984375 -1.65625 L 0.984375 0 Z M 0.453125 0 "/></g></g></g><g fill="#0f0e0c" fill-opacity="1"><g transform="translate(99.83009, 7.043403)"><g><path d="M 1.71875 0 C 1.425781 0 1.191406 -0.0664062 1.015625 -0.203125 C 0.847656 -0.347656 0.765625 -0.609375 0.765625 -0.984375 L 0.765625 -2.75 L 0.21875 -2.75 L 0.21875 -3.203125 L 0.765625 -3.203125 L 0.84375 -3.984375 L 1.3125 -3.984375 L 1.3125 -3.203125 L 2.25 -3.203125 L 2.25 -2.75 L 1.3125 -2.75 L 1.3125 -0.984375 C 1.3125 -0.773438 1.351562 -0.632812 1.4375 -0.5625 C 1.519531 -0.5 1.664062 -0.46875 1.875 -0.46875 L 2.203125 -0.46875 L 2.203125 0 Z M 1.71875 0 "/></g></g></g><g fill="#0f0e0c" fill-opacity="1"><g transform="translate(102.241433, 7.043403)"><g><path d="M 1.890625 0.078125 C 1.578125 0.078125 1.300781 0.0078125 1.0625 -0.125 C 0.832031 -0.269531 0.648438 -0.46875 0.515625 -0.71875 C 0.378906 -0.96875 0.3125 -1.265625 0.3125 -1.609375 C 0.3125 -1.941406 0.378906 -2.234375 0.515625 -2.484375 C 0.648438 -2.734375 0.832031 -2.925781 1.0625 -3.0625 C 1.300781 -3.207031 1.582031 -3.28125 1.90625 -3.28125 C 2.21875 -3.28125 2.484375 -3.207031 2.703125 -3.0625 C 2.929688 -2.925781 3.101562 -2.742188 3.21875 -2.515625 C 3.34375 -2.296875 3.40625 -2.050781 3.40625 -1.78125 C 3.40625 -1.738281 3.40625 -1.691406 3.40625 -1.640625 C 3.40625 -1.597656 3.40625 -1.546875 3.40625 -1.484375 L 0.84375 -1.484375 C 0.851562 -1.234375 0.910156 -1.023438 1.015625 -0.859375 C 1.117188 -0.703125 1.242188 -0.582031 1.390625 -0.5 C 1.546875 -0.414062 1.710938 -0.375 1.890625 -0.375 C 2.109375 -0.375 2.289062 -0.425781 2.4375 -0.53125 C 2.59375 -0.632812 2.707031 -0.773438 2.78125 -0.953125 L 3.3125 -0.953125 C 3.226562 -0.660156 3.0625 -0.414062 2.8125 -0.21875 C 2.570312 -0.0195312 2.265625 0.078125 1.890625 0.078125 Z M 1.890625 -2.828125 C 1.628906 -2.828125 1.398438 -2.75 1.203125 -2.59375 C 1.003906 -2.4375 0.890625 -2.207031 0.859375 -1.90625 L 2.875 -1.90625 C 2.863281 -2.1875 2.765625 -2.410156 2.578125 -2.578125 C 2.390625 -2.742188 2.160156 -2.828125 1.890625 -2.828125 Z M 1.890625 -2.828125 "/></g></g></g><g fill="#0f0e0c" fill-opacity="1"><g transform="translate(105.919865, 7.043403)"><g><path d="M 1.671875 0.078125 C 1.285156 0.078125 0.96875 -0.015625 0.71875 -0.203125 C 0.46875 -0.398438 0.316406 -0.664062 0.265625 -1 L 0.828125 -1 C 0.859375 -0.832031 0.945312 -0.6875 1.09375 -0.5625 C 1.238281 -0.4375 1.4375 -0.375 1.6875 -0.375 C 1.914062 -0.375 2.082031 -0.421875 2.1875 -0.515625 C 2.289062 -0.617188 2.34375 -0.738281 2.34375 -0.875 C 2.34375 -1.070312 2.269531 -1.203125 2.125 -1.265625 C 1.988281 -1.328125 1.796875 -1.382812 1.546875 -1.4375 C 1.367188 -1.46875 1.191406 -1.515625 1.015625 -1.578125 C 0.847656 -1.648438 0.707031 -1.742188 0.59375 -1.859375 C 0.476562 -1.972656 0.421875 -2.128906 0.421875 -2.328125 C 0.421875 -2.609375 0.523438 -2.835938 0.734375 -3.015625 C 0.941406 -3.191406 1.222656 -3.28125 1.578125 -3.28125 C 1.921875 -3.28125 2.203125 -3.195312 2.421875 -3.03125 C 2.640625 -2.863281 2.765625 -2.617188 2.796875 -2.296875 L 2.265625 -2.296875 C 2.242188 -2.460938 2.171875 -2.59375 2.046875 -2.6875 C 1.929688 -2.78125 1.773438 -2.828125 1.578125 -2.828125 C 1.378906 -2.828125 1.226562 -2.785156 1.125 -2.703125 C 1.019531 -2.617188 0.96875 -2.507812 0.96875 -2.375 C 0.96875 -2.25 1.035156 -2.148438 1.171875 -2.078125 C 1.304688 -2.003906 1.492188 -1.941406 1.734375 -1.890625 C 1.929688 -1.847656 2.117188 -1.796875 2.296875 -1.734375 C 2.472656 -1.671875 2.617188 -1.578125 2.734375 -1.453125 C 2.847656 -1.328125 2.90625 -1.148438 2.90625 -0.921875 C 2.90625 -0.628906 2.796875 -0.390625 2.578125 -0.203125 C 2.359375 -0.015625 2.054688 0.078125 1.671875 0.078125 Z M 1.671875 0.078125 "/></g></g></g><g fill="#0f0e0c" fill-opacity="1"><g transform="translate(109.152233, 7.043403)"><g/></g></g><g fill="#0f0e0c" fill-opacity="1"><g transform="translate(110.865388, 7.043403)"><g><path d="M 0.78125 -3.921875 C 0.664062 -3.921875 0.570312 -3.957031 0.5 -4.03125 C 0.4375 -4.101562 0.40625 -4.191406 0.40625 -4.296875 C 0.40625 -4.398438 0.4375 -4.484375 0.5 -4.546875 C 0.570312 -4.617188 0.664062 -4.65625 0.78125 -4.65625 C 0.882812 -4.65625 0.972656 -4.617188 1.046875 -4.546875 C 1.117188 -4.484375 1.15625 -4.398438 1.15625 -4.296875 C 1.15625 -4.191406 1.117188 -4.101562 1.046875 -4.03125 C 0.972656 -3.957031 0.882812 -3.921875 0.78125 -3.921875 Z M 0.5 0 L 0.5 -3.203125 L 1.046875 -3.203125 L 1.046875 0 Z M 0.5 0 "/></g></g></g><g fill="#0f0e0c" fill-opacity="1"><g transform="translate(112.410462, 7.043403)"><g><path d="M 0.453125 0 L 0.453125 -3.203125 L 0.9375 -3.203125 L 0.96875 -2.625 C 1.070312 -2.832031 1.21875 -2.992188 1.40625 -3.109375 C 1.601562 -3.222656 1.828125 -3.28125 2.078125 -3.28125 C 2.453125 -3.28125 2.753906 -3.164062 2.984375 -2.9375 C 3.210938 -2.707031 3.328125 -2.351562 3.328125 -1.875 L 3.328125 0 L 2.78125 0 L 2.78125 -1.8125 C 2.78125 -2.488281 2.503906 -2.828125 1.953125 -2.828125 C 1.679688 -2.828125 1.453125 -2.722656 1.265625 -2.515625 C 1.078125 -2.316406 0.984375 -2.03125 0.984375 -1.65625 L 0.984375 0 Z M 0.453125 0 "/></g></g></g><g fill="#0f0e0c" fill-opacity="1"><g transform="translate(116.108286, 7.043403)"><g><path d="M 1.90625 0.078125 C 1.582031 0.078125 1.300781 0.00390625 1.0625 -0.140625 C 0.820312 -0.285156 0.632812 -0.484375 0.5 -0.734375 C 0.375 -0.992188 0.3125 -1.285156 0.3125 -1.609375 C 0.3125 -1.929688 0.378906 -2.21875 0.515625 -2.46875 C 0.648438 -2.726562 0.832031 -2.925781 1.0625 -3.0625 C 1.300781 -3.207031 1.582031 -3.28125 1.90625 -3.28125 C 2.164062 -3.28125 2.394531 -3.226562 2.59375 -3.125 C 2.800781 -3.019531 2.960938 -2.867188 3.078125 -2.671875 L 3.078125 -4.65625 L 3.625 -4.65625 L 3.625 0 L 3.125 0 L 3.078125 -0.53125 C 2.972656 -0.375 2.820312 -0.234375 2.625 -0.109375 C 2.4375 0.015625 2.195312 0.078125 1.90625 0.078125 Z M 1.953125 -0.390625 C 2.171875 -0.390625 2.363281 -0.441406 2.53125 -0.546875 C 2.695312 -0.648438 2.828125 -0.789062 2.921875 -0.96875 C 3.015625 -1.144531 3.0625 -1.359375 3.0625 -1.609375 C 3.0625 -1.847656 3.015625 -2.054688 2.921875 -2.234375 C 2.828125 -2.421875 2.695312 -2.5625 2.53125 -2.65625 C 2.363281 -2.757812 2.171875 -2.8125 1.953125 -2.8125 C 1.742188 -2.8125 1.554688 -2.757812 1.390625 -2.65625 C 1.222656 -2.5625 1.09375 -2.421875 1 -2.234375 C 0.90625 -2.054688 0.859375 -1.847656 0.859375 -1.609375 C 0.859375 -1.359375 0.90625 -1.144531 1 -0.96875 C 1.09375 -0.789062 1.222656 -0.648438 1.390625 -0.546875 C 1.554688 -0.441406 1.742188 -0.390625 1.953125 -0.390625 Z M 1.953125 -0.390625 "/></g></g></g><g fill="#0f0e0c" fill-opacity="1"><g transform="translate(120.16814, 7.043403)"><g><path d="M 1.890625 0.078125 C 1.578125 0.078125 1.300781 0.0078125 1.0625 -0.125 C 0.832031 -0.269531 0.648438 -0.46875 0.515625 -0.71875 C 0.378906 -0.96875 0.3125 -1.265625 0.3125 -1.609375 C 0.3125 -1.941406 0.378906 -2.234375 0.515625 -2.484375 C 0.648438 -2.734375 0.832031 -2.925781 1.0625 -3.0625 C 1.300781 -3.207031 1.582031 -3.28125 1.90625 -3.28125 C 2.21875 -3.28125 2.484375 -3.207031 2.703125 -3.0625 C 2.929688 -2.925781 3.101562 -2.742188 3.21875 -2.515625 C 3.34375 -2.296875 3.40625 -2.050781 3.40625 -1.78125 C 3.40625 -1.738281 3.40625 -1.691406 3.40625 -1.640625 C 3.40625 -1.597656 3.40625 -1.546875 3.40625 -1.484375 L 0.84375 -1.484375 C 0.851562 -1.234375 0.910156 -1.023438 1.015625 -0.859375 C 1.117188 -0.703125 1.242188 -0.582031 1.390625 -0.5 C 1.546875 -0.414062 1.710938 -0.375 1.890625 -0.375 C 2.109375 -0.375 2.289062 -0.425781 2.4375 -0.53125 C 2.59375 -0.632812 2.707031 -0.773438 2.78125 -0.953125 L 3.3125 -0.953125 C 3.226562 -0.660156 3.0625 -0.414062 2.8125 -0.21875 C 2.570312 -0.0195312 2.265625 0.078125 1.890625 0.078125 Z M 1.890625 -2.828125 C 1.628906 -2.828125 1.398438 -2.75 1.203125 -2.59375 C 1.003906 -2.4375 0.890625 -2.207031 0.859375 -1.90625 L 2.875 -1.90625 C 2.863281 -2.1875 2.765625 -2.410156 2.578125 -2.578125 C 2.390625 -2.742188 2.160156 -2.828125 1.890625 -2.828125 Z M 1.890625 -2.828125 "/></g></g></g><g fill="#0f0e0c" fill-opacity="1"><g transform="translate(123.846572, 7.043403)"><g><path d="M 0.453125 1.421875 L 0.453125 -3.203125 L 0.9375 -3.203125 L 0.984375 -2.671875 C 1.085938 -2.828125 1.234375 -2.96875 1.421875 -3.09375 C 1.617188 -3.21875 1.867188 -3.28125 2.171875 -3.28125 C 2.484375 -3.28125 2.757812 -3.207031 3 -3.0625 C 3.238281 -2.914062 3.421875 -2.710938 3.546875 -2.453125 C 3.679688 -2.203125 3.75 -1.914062 3.75 -1.59375 C 3.75 -1.269531 3.679688 -0.984375 3.546875 -0.734375 C 3.421875 -0.484375 3.238281 -0.285156 3 -0.140625 C 2.757812 0.00390625 2.476562 0.078125 2.15625 0.078125 C 1.894531 0.078125 1.660156 0.0234375 1.453125 -0.078125 C 1.253906 -0.191406 1.097656 -0.34375 0.984375 -0.53125 L 0.984375 1.421875 Z M 2.109375 -0.390625 C 2.316406 -0.390625 2.503906 -0.441406 2.671875 -0.546875 C 2.835938 -0.648438 2.96875 -0.789062 3.0625 -0.96875 C 3.15625 -1.144531 3.203125 -1.359375 3.203125 -1.609375 C 3.203125 -1.847656 3.15625 -2.054688 3.0625 -2.234375 C 2.96875 -2.421875 2.835938 -2.5625 2.671875 -2.65625 C 2.503906 -2.757812 2.316406 -2.8125 2.109375 -2.8125 C 1.890625 -2.8125 1.695312 -2.757812 1.53125 -2.65625 C 1.363281 -2.5625 1.234375 -2.421875 1.140625 -2.234375 C 1.046875 -2.054688 1 -1.847656 1 -1.609375 C 1 -1.359375 1.046875 -1.144531 1.140625 -0.96875 C 1.234375 -0.789062 1.363281 -0.648438 1.53125 -0.546875 C 1.695312 -0.441406 1.890625 -0.390625 2.109375 -0.390625 Z M 2.109375 -0.390625 "/></g></g></g><g fill="#0f0e0c" fill-opacity="1"><g transform="translate(127.906426, 7.043403)"><g><path d="M 1.890625 0.078125 C 1.578125 0.078125 1.300781 0.0078125 1.0625 -0.125 C 0.832031 -0.269531 0.648438 -0.46875 0.515625 -0.71875 C 0.378906 -0.96875 0.3125 -1.265625 0.3125 -1.609375 C 0.3125 -1.941406 0.378906 -2.234375 0.515625 -2.484375 C 0.648438 -2.734375 0.832031 -2.925781 1.0625 -3.0625 C 1.300781 -3.207031 1.582031 -3.28125 1.90625 -3.28125 C 2.21875 -3.28125 2.484375 -3.207031 2.703125 -3.0625 C 2.929688 -2.925781 3.101562 -2.742188 3.21875 -2.515625 C 3.34375 -2.296875 3.40625 -2.050781 3.40625 -1.78125 C 3.40625 -1.738281 3.40625 -1.691406 3.40625 -1.640625 C 3.40625 -1.597656 3.40625 -1.546875 3.40625 -1.484375 L 0.84375 -1.484375 C 0.851562 -1.234375 0.910156 -1.023438 1.015625 -0.859375 C 1.117188 -0.703125 1.242188 -0.582031 1.390625 -0.5 C 1.546875 -0.414062 1.710938 -0.375 1.890625 -0.375 C 2.109375 -0.375 2.289062 -0.425781 2.4375 -0.53125 C 2.59375 -0.632812 2.707031 -0.773438 2.78125 -0.953125 L 3.3125 -0.953125 C 3.226562 -0.660156 3.0625 -0.414062 2.8125 -0.21875 C 2.570312 -0.0195312 2.265625 0.078125 1.890625 0.078125 Z M 1.890625 -2.828125 C 1.628906 -2.828125 1.398438 -2.75 1.203125 -2.59375 C 1.003906 -2.4375 0.890625 -2.207031 0.859375 -1.90625 L 2.875 -1.90625 C 2.863281 -2.1875 2.765625 -2.410156 2.578125 -2.578125 C 2.390625 -2.742188 2.160156 -2.828125 1.890625 -2.828125 Z M 1.890625 -2.828125 "/></g></g></g><g fill="#0f0e0c" fill-opacity="1"><g transform="translate(131.584858, 7.043403)"><g><path d="M 0.453125 0 L 0.453125 -3.203125 L 0.9375 -3.203125 L 0.96875 -2.625 C 1.070312 -2.832031 1.21875 -2.992188 1.40625 -3.109375 C 1.601562 -3.222656 1.828125 -3.28125 2.078125 -3.28125 C 2.453125 -3.28125 2.753906 -3.164062 2.984375 -2.9375 C 3.210938 -2.707031 3.328125 -2.351562 3.328125 -1.875 L 3.328125 0 L 2.78125 0 L 2.78125 -1.8125 C 2.78125 -2.488281 2.503906 -2.828125 1.953125 -2.828125 C 1.679688 -2.828125 1.453125 -2.722656 1.265625 -2.515625 C 1.078125 -2.316406 0.984375 -2.03125 0.984375 -1.65625 L 0.984375 0 Z M 0.453125 0 "/></g></g></g><g fill="#0f0e0c" fill-opacity="1"><g transform="translate(135.282682, 7.043403)"><g><path d="M 1.90625 0.078125 C 1.582031 0.078125 1.300781 0.00390625 1.0625 -0.140625 C 0.820312 -0.285156 0.632812 -0.484375 0.5 -0.734375 C 0.375 -0.992188 0.3125 -1.285156 0.3125 -1.609375 C 0.3125 -1.929688 0.378906 -2.21875 0.515625 -2.46875 C 0.648438 -2.726562 0.832031 -2.925781 1.0625 -3.0625 C 1.300781 -3.207031 1.582031 -3.28125 1.90625 -3.28125 C 2.164062 -3.28125 2.394531 -3.226562 2.59375 -3.125 C 2.800781 -3.019531 2.960938 -2.867188 3.078125 -2.671875 L 3.078125 -4.65625 L 3.625 -4.65625 L 3.625 0 L 3.125 0 L 3.078125 -0.53125 C 2.972656 -0.375 2.820312 -0.234375 2.625 -0.109375 C 2.4375 0.015625 2.195312 0.078125 1.90625 0.078125 Z M 1.953125 -0.390625 C 2.171875 -0.390625 2.363281 -0.441406 2.53125 -0.546875 C 2.695312 -0.648438 2.828125 -0.789062 2.921875 -0.96875 C 3.015625 -1.144531 3.0625 -1.359375 3.0625 -1.609375 C 3.0625 -1.847656 3.015625 -2.054688 2.921875 -2.234375 C 2.828125 -2.421875 2.695312 -2.5625 2.53125 -2.65625 C 2.363281 -2.757812 2.171875 -2.8125 1.953125 -2.8125 C 1.742188 -2.8125 1.554688 -2.757812 1.390625 -2.65625 C 1.222656 -2.5625 1.09375 -2.421875 1 -2.234375 C 0.90625 -2.054688 0.859375 -1.847656 0.859375 -1.609375 C 0.859375 -1.359375 0.90625 -1.144531 1 -0.96875 C 1.09375 -0.789062 1.222656 -0.648438 1.390625 -0.546875 C 1.554688 -0.441406 1.742188 -0.390625 1.953125 -0.390625 Z M 1.953125 -0.390625 "/></g></g></g><g fill="#0f0e0c" fill-opacity="1"><g transform="translate(139.342544, 7.043403)"><g><path d="M 0.78125 -3.921875 C 0.664062 -3.921875 0.570312 -3.957031 0.5 -4.03125 C 0.4375 -4.101562 0.40625 -4.191406 0.40625 -4.296875 C 0.40625 -4.398438 0.4375 -4.484375 0.5 -4.546875 C 0.570312 -4.617188 0.664062 -4.65625 0.78125 -4.65625 C 0.882812 -4.65625 0.972656 -4.617188 1.046875 -4.546875 C 1.117188 -4.484375 1.15625 -4.398438 1.15625 -4.296875 C 1.15625 -4.191406 1.117188 -4.101562 1.046875 -4.03125 C 0.972656 -3.957031 0.882812 -3.921875 0.78125 -3.921875 Z M 0.5 0 L 0.5 -3.203125 L 1.046875 -3.203125 L 1.046875 0 Z M 0.5 0 "/></g></g></g><g fill="#0f0e0c" fill-opacity="1"><g transform="translate(140.88761, 7.043403)"><g><path d="M 1.890625 0.078125 C 1.578125 0.078125 1.300781 0.0078125 1.0625 -0.125 C 0.832031 -0.269531 0.648438 -0.46875 0.515625 -0.71875 C 0.378906 -0.96875 0.3125 -1.265625 0.3125 -1.609375 C 0.3125 -1.941406 0.378906 -2.234375 0.515625 -2.484375 C 0.648438 -2.734375 0.832031 -2.925781 1.0625 -3.0625 C 1.300781 -3.207031 1.582031 -3.28125 1.90625 -3.28125 C 2.21875 -3.28125 2.484375 -3.207031 2.703125 -3.0625 C 2.929688 -2.925781 3.101562 -2.742188 3.21875 -2.515625 C 3.34375 -2.296875 3.40625 -2.050781 3.40625 -1.78125 C 3.40625 -1.738281 3.40625 -1.691406 3.40625 -1.640625 C 3.40625 -1.597656 3.40625 -1.546875 3.40625 -1.484375 L 0.84375 -1.484375 C 0.851562 -1.234375 0.910156 -1.023438 1.015625 -0.859375 C 1.117188 -0.703125 1.242188 -0.582031 1.390625 -0.5 C 1.546875 -0.414062 1.710938 -0.375 1.890625 -0.375 C 2.109375 -0.375 2.289062 -0.425781 2.4375 -0.53125 C 2.59375 -0.632812 2.707031 -0.773438 2.78125 -0.953125 L 3.3125 -0.953125 C 3.226562 -0.660156 3.0625 -0.414062 2.8125 -0.21875 C 2.570312 -0.0195312 2.265625 0.078125 1.890625 0.078125 Z M 1.890625 -2.828125 C 1.628906 -2.828125 1.398438 -2.75 1.203125 -2.59375 C 1.003906 -2.4375 0.890625 -2.207031 0.859375 -1.90625 L 2.875 -1.90625 C 2.863281 -2.1875 2.765625 -2.410156 2.578125 -2.578125 C 2.390625 -2.742188 2.160156 -2.828125 1.890625 -2.828125 Z M 1.890625 -2.828125 "/></g></g></g><g fill="#0f0e0c" fill-opacity="1"><g transform="translate(144.566035, 7.043403)"><g><path d="M 0.453125 0 L 0.453125 -3.203125 L 0.9375 -3.203125 L 0.96875 -2.625 C 1.070312 -2.832031 1.21875 -2.992188 1.40625 -3.109375 C 1.601562 -3.222656 1.828125 -3.28125 2.078125 -3.28125 C 2.453125 -3.28125 2.753906 -3.164062 2.984375 -2.9375 C 3.210938 -2.707031 3.328125 -2.351562 3.328125 -1.875 L 3.328125 0 L 2.78125 0 L 2.78125 -1.8125 C 2.78125 -2.488281 2.503906 -2.828125 1.953125 -2.828125 C 1.679688 -2.828125 1.453125 -2.722656 1.265625 -2.515625 C 1.078125 -2.316406 0.984375 -2.03125 0.984375 -1.65625 L 0.984375 0 Z M 0.453125 0 "/></g></g></g><g fill="#0f0e0c" fill-opacity="1"><g transform="translate(148.263875, 7.043403)"><g><path d="M 1.71875 0 C 1.425781 0 1.191406 -0.0664062 1.015625 -0.203125 C 0.847656 -0.347656 0.765625 -0.609375 0.765625 -0.984375 L 0.765625 -2.75 L 0.21875 -2.75 L 0.21875 -3.203125 L 0.765625 -3.203125 L 0.84375 -3.984375 L 1.3125 -3.984375 L 1.3125 -3.203125 L 2.25 -3.203125 L 2.25 -2.75 L 1.3125 -2.75 L 1.3125 -0.984375 C 1.3125 -0.773438 1.351562 -0.632812 1.4375 -0.5625 C 1.519531 -0.5 1.664062 -0.46875 1.875 -0.46875 L 2.203125 -0.46875 L 2.203125 0 Z M 1.71875 0 "/></g></g></g><g fill="#0f0e0c" fill-opacity="1"><g transform="translate(150.67521, 7.043403)"><g><path d="M 1.890625 0.078125 C 1.578125 0.078125 1.300781 0.0078125 1.0625 -0.125 C 0.832031 -0.269531 0.648438 -0.46875 0.515625 -0.71875 C 0.378906 -0.96875 0.3125 -1.265625 0.3125 -1.609375 C 0.3125 -1.941406 0.378906 -2.234375 0.515625 -2.484375 C 0.648438 -2.734375 0.832031 -2.925781 1.0625 -3.0625 C 1.300781 -3.207031 1.582031 -3.28125 1.90625 -3.28125 C 2.21875 -3.28125 2.484375 -3.207031 2.703125 -3.0625 C 2.929688 -2.925781 3.101562 -2.742188 3.21875 -2.515625 C 3.34375 -2.296875 3.40625 -2.050781 3.40625 -1.78125 C 3.40625 -1.738281 3.40625 -1.691406 3.40625 -1.640625 C 3.40625 -1.597656 3.40625 -1.546875 3.40625 -1.484375 L 0.84375 -1.484375 C 0.851562 -1.234375 0.910156 -1.023438 1.015625 -0.859375 C 1.117188 -0.703125 1.242188 -0.582031 1.390625 -0.5 C 1.546875 -0.414062 1.710938 -0.375 1.890625 -0.375 C 2.109375 -0.375 2.289062 -0.425781 2.4375 -0.53125 C 2.59375 -0.632812 2.707031 -0.773438 2.78125 -0.953125 L 3.3125 -0.953125 C 3.226562 -0.660156 3.0625 -0.414062 2.8125 -0.21875 C 2.570312 -0.0195312 2.265625 0.078125 1.890625 0.078125 Z M 1.890625 -2.828125 C 1.628906 -2.828125 1.398438 -2.75 1.203125 -2.59375 C 1.003906 -2.4375 0.890625 -2.207031 0.859375 -1.90625 L 2.875 -1.90625 C 2.863281 -2.1875 2.765625 -2.410156 2.578125 -2.578125 C 2.390625 -2.742188 2.160156 -2.828125 1.890625 -2.828125 Z M 1.890625 -2.828125 "/></g></g></g><g clip-path="url(#4f09f50a28)"><g fill="#0f0e0c" fill-opacity="1"><g transform="translate(154.353651, 7.043403)"><g><path d="M 1.671875 0.078125 C 1.285156 0.078125 0.96875 -0.015625 0.71875 -0.203125 C 0.46875 -0.398438 0.316406 -0.664062 0.265625 -1 L 0.828125 -1 C 0.859375 -0.832031 0.945312 -0.6875 1.09375 -0.5625 C 1.238281 -0.4375 1.4375 -0.375 1.6875 -0.375 C 1.914062 -0.375 2.082031 -0.421875 2.1875 -0.515625 C 2.289062 -0.617188 2.34375 -0.738281 2.34375 -0.875 C 2.34375 -1.070312 2.269531 -1.203125 2.125 -1.265625 C 1.988281 -1.328125 1.796875 -1.382812 1.546875 -1.4375 C 1.367188 -1.46875 1.191406 -1.515625 1.015625 -1.578125 C 0.847656 -1.648438 0.707031 -1.742188 0.59375 -1.859375 C 0.476562 -1.972656 0.421875 -2.128906 0.421875 -2.328125 C 0.421875 -2.609375 0.523438 -2.835938 0.734375 -3.015625 C 0.941406 -3.191406 1.222656 -3.28125 1.578125 -3.28125 C 1.921875 -3.28125 2.203125 -3.195312 2.421875 -3.03125 C 2.640625 -2.863281 2.765625 -2.617188 2.796875 -2.296875 L 2.265625 -2.296875 C 2.242188 -2.460938 2.171875 -2.59375 2.046875 -2.6875 C 1.929688 -2.78125 1.773438 -2.828125 1.578125 -2.828125 C 1.378906 -2.828125 1.226562 -2.785156 1.125 -2.703125 C 1.019531 -2.617188 0.96875 -2.507812 0.96875 -2.375 C 0.96875 -2.25 1.035156 -2.148438 1.171875 -2.078125 C 1.304688 -2.003906 1.492188 -1.941406 1.734375 -1.890625 C 1.929688 -1.847656 2.117188 -1.796875 2.296875 -1.734375 C 2.472656 -1.671875 2.617188 -1.578125 2.734375 -1.453125 C 2.847656 -1.328125 2.90625 -1.148438 2.90625 -0.921875 C 2.90625 -0.628906 2.796875 -0.390625 2.578125 -0.203125 C 2.359375 -0.015625 2.054688 0.078125 1.671875 0.078125 Z M 1.671875 0.078125 "/></g></g></g></g></g></g></svg>