<svg xmlns="http://www.w3.org/2000/svg" xmlns:xlink="http://www.w3.org/1999/xlink" width="271" zoomAndPan="magnify" viewBox="0 0 203.25 115.499997" height="154" preserveAspectRatio="xMidYMid meet" version="1.0"><defs><g/><clipPath id="fe119feab6"><path d="M 0.0664062 0 L 202.4375 0 L 202.4375 115.003906 L 0.0664062 115.003906 Z M 0.0664062 0 " clip-rule="nonzero"/></clipPath><clipPath id="b1a4793dfb"><path d="M 22.46875 0 L 180.035156 0 C 192.410156 0 202.4375 10.03125 202.4375 22.402344 L 202.4375 92.597656 C 202.4375 104.972656 192.410156 115.003906 180.035156 115.003906 L 22.46875 115.003906 C 10.09375 115.003906 0.0664062 104.972656 0.0664062 92.597656 L 0.0664062 22.402344 C 0.0664062 10.03125 10.09375 0 22.46875 0 Z M 22.46875 0 " clip-rule="nonzero"/></clipPath><clipPath id="e24fccfc2b"><path d="M 0.0664062 0 L 202.4375 0 L 202.4375 115.003906 L 0.0664062 115.003906 Z M 0.0664062 0 " clip-rule="nonzero"/></clipPath><clipPath id="c5362795d1"><path d="M 22.46875 0 L 180.035156 0 C 192.410156 0 202.4375 10.03125 202.4375 22.402344 L 202.4375 92.597656 C 202.4375 104.972656 192.410156 115.003906 180.035156 115.003906 L 22.46875 115.003906 C 10.09375 115.003906 0.0664062 104.972656 0.0664062 92.597656 L 0.0664062 22.402344 C 0.0664062 10.03125 10.09375 0 22.46875 0 Z M 22.46875 0 " clip-rule="nonzero"/></clipPath><clipPath id="ae62edebbb"><rect x="0" width="203" y="0" height="116"/></clipPath></defs><g clip-path="url(#fe119feab6)"><g clip-path="url(#b1a4793dfb)"><g><g clip-path="url(#ae62edebbb)"><g clip-path="url(#e24fccfc2b)"><g clip-path="url(#c5362795d1)"><path fill="#0f0e0c" d="M 0.0664062 0 L 202.21875 0 L 202.21875 115.003906 L 0.0664062 115.003906 Z M 0.0664062 0 " fill-opacity="1" fill-rule="nonzero"/></g></g></g></g></g></g><g fill="#f5f0e8" fill-opacity="1"><g transform="translate(19.398927, 73.929952)"><g><path d="M 34.65625 -29.609375 L 34.65625 -28.765625 C 33.707031 -28.734375 32.988281 -28.628906 32.5 -28.453125 C 32.019531 -28.273438 31.695312 -27.941406 31.53125 -27.453125 C 31.363281 -26.960938 31.28125 -26.203125 31.28125 -25.171875 L 31.28125 -4.4375 C 31.28125 -3.425781 31.363281 -2.671875 31.53125 -2.171875 C 31.695312 -1.671875 32.019531 -1.335938 32.5 -1.171875 C 32.988281 -1.003906 33.707031 -0.894531 34.65625 -0.84375 L 34.65625 0 C 34.019531 -0.0507812 33.21875 -0.0820312 32.25 -0.09375 C 31.289062 -0.113281 30.328125 -0.125 29.359375 -0.125 C 28.265625 -0.125 27.242188 -0.113281 26.296875 -0.09375 C 25.347656 -0.0820312 24.582031 -0.0507812 24 0 L 24 -0.84375 C 24.945312 -0.894531 25.664062 -1.003906 26.15625 -1.171875 C 26.644531 -1.335938 26.972656 -1.671875 27.140625 -2.171875 C 27.304688 -2.671875 27.390625 -3.425781 27.390625 -4.4375 L 27.390625 -27.421875 L 27.546875 -27.296875 L 17.3125 0.203125 L 16.640625 0.203125 L 6.109375 -26.921875 L 6.109375 -4.84375 C 6.109375 -3.84375 6.195312 -3.054688 6.375 -2.484375 C 6.550781 -1.910156 6.910156 -1.503906 7.453125 -1.265625 C 8.003906 -1.035156 8.820312 -0.894531 9.90625 -0.84375 L 9.90625 0 C 9.40625 -0.0507812 8.75 -0.0820312 7.9375 -0.09375 C 7.132812 -0.113281 6.367188 -0.125 5.640625 -0.125 C 4.941406 -0.125 4.238281 -0.113281 3.53125 -0.09375 C 2.820312 -0.0820312 2.226562 -0.0507812 1.75 0 L 1.75 -0.84375 C 2.695312 -0.894531 3.414062 -1.035156 3.90625 -1.265625 C 4.394531 -1.503906 4.722656 -1.910156 4.890625 -2.484375 C 5.054688 -3.054688 5.140625 -3.84375 5.140625 -4.84375 L 5.140625 -25.171875 C 5.140625 -26.203125 5.054688 -26.960938 4.890625 -27.453125 C 4.722656 -27.941406 4.394531 -28.273438 3.90625 -28.453125 C 3.414062 -28.628906 2.695312 -28.734375 1.75 -28.765625 L 1.75 -29.609375 C 2.226562 -29.578125 2.820312 -29.546875 3.53125 -29.515625 C 4.238281 -29.492188 4.941406 -29.484375 5.640625 -29.484375 C 6.253906 -29.484375 6.890625 -29.492188 7.546875 -29.515625 C 8.203125 -29.546875 8.753906 -29.578125 9.203125 -29.609375 L 18.6875 -4.59375 L 17.984375 -4.265625 L 27.390625 -29.484375 C 27.722656 -29.484375 28.046875 -29.484375 28.359375 -29.484375 C 28.679688 -29.484375 29.015625 -29.484375 29.359375 -29.484375 C 30.328125 -29.484375 31.289062 -29.492188 32.25 -29.515625 C 33.21875 -29.546875 34.019531 -29.578125 34.65625 -29.609375 Z M 34.65625 -29.609375 "/></g></g></g><g fill="#f5f0e8" fill-opacity="1"><g transform="translate(55.070506, 73.929952)"><g><path d="M 11.375 -22.125 C 13.820312 -22.125 15.734375 -21.375 17.109375 -19.875 C 18.492188 -18.382812 19.1875 -16.066406 19.1875 -12.921875 L 4.4375 -12.921875 L 4.390625 -13.71875 L 15.171875 -13.71875 C 15.234375 -15.082031 15.125 -16.34375 14.84375 -17.5 C 14.5625 -18.65625 14.117188 -19.582031 13.515625 -20.28125 C 12.921875 -20.976562 12.148438 -21.328125 11.203125 -21.328125 C 9.921875 -21.328125 8.785156 -20.6875 7.796875 -19.40625 C 6.804688 -18.125 6.210938 -16.085938 6.015625 -13.296875 L 6.140625 -13.125 C 6.085938 -12.707031 6.046875 -12.25 6.015625 -11.75 C 5.992188 -11.25 5.984375 -10.75 5.984375 -10.25 C 5.984375 -8.351562 6.285156 -6.71875 6.890625 -5.34375 C 7.503906 -3.976562 8.304688 -2.941406 9.296875 -2.234375 C 10.285156 -1.523438 11.3125 -1.171875 12.375 -1.171875 C 13.207031 -1.171875 14 -1.300781 14.75 -1.5625 C 15.507812 -1.832031 16.207031 -2.273438 16.84375 -2.890625 C 17.488281 -3.503906 18.046875 -4.328125 18.515625 -5.359375 L 19.359375 -5.015625 C 19.054688 -4.097656 18.554688 -3.207031 17.859375 -2.34375 C 17.160156 -1.476562 16.28125 -0.773438 15.21875 -0.234375 C 14.15625 0.304688 12.929688 0.578125 11.546875 0.578125 C 9.535156 0.578125 7.8125 0.117188 6.375 -0.796875 C 4.9375 -1.710938 3.832031 -2.984375 3.0625 -4.609375 C 2.300781 -6.242188 1.921875 -8.125 1.921875 -10.25 C 1.921875 -12.695312 2.3125 -14.804688 3.09375 -16.578125 C 3.875 -18.347656 4.972656 -19.710938 6.390625 -20.671875 C 7.816406 -21.640625 9.476562 -22.125 11.375 -22.125 Z M 11.375 -22.125 "/></g></g></g><g fill="#f5f0e8" fill-opacity="1"><g transform="translate(76.230901, 73.929952)"><g><path d="M 15.265625 -22.125 C 16.316406 -22.125 17.195312 -21.984375 17.90625 -21.703125 C 18.625 -21.421875 19.21875 -21.03125 19.6875 -20.53125 C 20.21875 -19.96875 20.59375 -19.269531 20.8125 -18.4375 C 21.039062 -17.601562 21.15625 -16.472656 21.15625 -15.046875 L 21.15625 -3.890625 C 21.15625 -2.710938 21.398438 -1.914062 21.890625 -1.5 C 22.378906 -1.082031 23.191406 -0.875 24.328125 -0.875 L 24.328125 0 C 23.859375 -0.03125 23.132812 -0.0664062 22.15625 -0.109375 C 21.1875 -0.148438 20.238281 -0.171875 19.3125 -0.171875 C 18.394531 -0.171875 17.492188 -0.148438 16.609375 -0.109375 C 15.734375 -0.0664062 15.078125 -0.03125 14.640625 0 L 14.640625 -0.875 C 15.640625 -0.875 16.347656 -1.082031 16.765625 -1.5 C 17.179688 -1.914062 17.390625 -2.710938 17.390625 -3.890625 L 17.390625 -15.96875 C 17.390625 -16.832031 17.316406 -17.625 17.171875 -18.34375 C 17.035156 -19.070312 16.722656 -19.660156 16.234375 -20.109375 C 15.753906 -20.554688 15.007812 -20.78125 14 -20.78125 C 12.832031 -20.78125 11.804688 -20.445312 10.921875 -19.78125 C 10.046875 -19.113281 9.363281 -18.195312 8.875 -17.03125 C 8.394531 -15.875 8.15625 -14.585938 8.15625 -13.171875 L 8.15625 -3.890625 C 8.15625 -2.710938 8.363281 -1.914062 8.78125 -1.5 C 9.195312 -1.082031 9.90625 -0.875 10.90625 -0.875 L 10.90625 0 C 10.46875 -0.03125 9.804688 -0.0664062 8.921875 -0.109375 C 8.046875 -0.148438 7.148438 -0.171875 6.234375 -0.171875 C 5.304688 -0.171875 4.351562 -0.148438 3.375 -0.109375 C 2.40625 -0.0664062 1.6875 -0.03125 1.21875 0 L 1.21875 -0.875 C 2.351562 -0.875 3.164062 -1.082031 3.65625 -1.5 C 4.144531 -1.914062 4.390625 -2.710938 4.390625 -3.890625 L 4.390625 -16.96875 C 4.390625 -18.226562 4.164062 -19.15625 3.71875 -19.75 C 3.269531 -20.351562 2.4375 -20.65625 1.21875 -20.65625 L 1.21875 -21.53125 C 2.101562 -21.445312 2.96875 -21.40625 3.8125 -21.40625 C 4.613281 -21.40625 5.382812 -21.453125 6.125 -21.546875 C 6.863281 -21.648438 7.539062 -21.800781 8.15625 -22 L 8.15625 -17.0625 C 8.875 -18.957031 9.878906 -20.273438 11.171875 -21.015625 C 12.472656 -21.753906 13.835938 -22.125 15.265625 -22.125 Z M 15.265625 -22.125 "/></g></g></g><g fill="#f5f0e8" fill-opacity="1"><g transform="translate(101.196815, 73.929952)"><g><path d="M 20.203125 -22 L 20.203125 -4.515625 C 20.203125 -3.265625 20.429688 -2.335938 20.890625 -1.734375 C 21.347656 -1.140625 22.175781 -0.84375 23.375 -0.84375 L 23.375 0.046875 C 22.507812 -0.0351562 21.644531 -0.078125 20.78125 -0.078125 C 19.96875 -0.078125 19.191406 -0.0351562 18.453125 0.046875 C 17.722656 0.128906 17.050781 0.28125 16.4375 0.5 L 16.4375 -4.4375 C 15.738281 -2.625 14.753906 -1.332031 13.484375 -0.5625 C 12.210938 0.195312 10.910156 0.578125 9.578125 0.578125 C 8.597656 0.578125 7.742188 0.4375 7.015625 0.15625 C 6.296875 -0.113281 5.695312 -0.5 5.21875 -1 C 4.695312 -1.5625 4.335938 -2.285156 4.140625 -3.171875 C 3.941406 -4.066406 3.84375 -5.171875 3.84375 -6.484375 L 3.84375 -16.96875 C 3.84375 -18.226562 3.617188 -19.15625 3.171875 -19.75 C 2.734375 -20.351562 1.898438 -20.65625 0.671875 -20.65625 L 0.671875 -21.53125 C 1.554688 -21.445312 2.421875 -21.40625 3.265625 -21.40625 C 4.066406 -21.40625 4.835938 -21.453125 5.578125 -21.546875 C 6.316406 -21.648438 6.992188 -21.800781 7.609375 -22 L 7.609375 -5.5625 C 7.609375 -4.695312 7.660156 -3.898438 7.765625 -3.171875 C 7.878906 -2.453125 8.160156 -1.867188 8.609375 -1.421875 C 9.054688 -0.972656 9.78125 -0.75 10.78125 -0.75 C 11.875 -0.75 12.84375 -1.082031 13.6875 -1.75 C 14.539062 -2.425781 15.210938 -3.332031 15.703125 -4.46875 C 16.191406 -5.613281 16.4375 -6.898438 16.4375 -8.328125 L 16.4375 -16.96875 C 16.4375 -18.226562 16.210938 -19.15625 15.765625 -19.75 C 15.316406 -20.351562 14.476562 -20.65625 13.25 -20.65625 L 13.25 -21.53125 C 14.144531 -21.445312 15.007812 -21.40625 15.84375 -21.40625 C 16.65625 -21.40625 17.429688 -21.453125 18.171875 -21.546875 C 18.910156 -21.648438 19.585938 -21.800781 20.203125 -22 Z M 20.203125 -22 "/></g></g></g><g fill="#d4500a" fill-opacity="1"><g transform="translate(125.498209, 73.929952)"><g><path d="M 16.59375 -30.1875 C 19.550781 -30.1875 22.140625 -29.585938 24.359375 -28.390625 C 26.578125 -27.191406 28.296875 -25.46875 29.515625 -23.21875 C 30.742188 -20.976562 31.359375 -18.253906 31.359375 -15.046875 C 31.359375 -11.929688 30.726562 -9.203125 29.46875 -6.859375 C 28.21875 -4.515625 26.46875 -2.6875 24.21875 -1.375 C 21.976562 -0.0703125 19.425781 0.578125 16.5625 0.578125 C 13.601562 0.578125 11.015625 -0.0195312 8.796875 -1.21875 C 6.585938 -2.414062 4.867188 -4.140625 3.640625 -6.390625 C 2.410156 -8.648438 1.796875 -11.367188 1.796875 -14.546875 C 1.796875 -17.671875 2.429688 -20.40625 3.703125 -22.75 C 4.972656 -25.09375 6.710938 -26.914062 8.921875 -28.21875 C 11.140625 -29.53125 13.695312 -30.1875 16.59375 -30.1875 Z M 16.4375 -29.4375 C 14.875 -29.4375 13.515625 -28.804688 12.359375 -27.546875 C 11.203125 -26.296875 10.304688 -24.566406 9.671875 -22.359375 C 9.046875 -20.160156 8.734375 -17.613281 8.734375 -14.71875 C 8.734375 -11.757812 9.085938 -9.1875 9.796875 -7 C 10.515625 -4.8125 11.476562 -3.125 12.6875 -1.9375 C 13.90625 -0.757812 15.25 -0.171875 16.71875 -0.171875 C 18.28125 -0.171875 19.640625 -0.796875 20.796875 -2.046875 C 21.953125 -3.304688 22.84375 -5.039062 23.46875 -7.25 C 24.101562 -9.46875 24.421875 -12.015625 24.421875 -14.890625 C 24.421875 -17.867188 24.0625 -20.441406 23.34375 -22.609375 C 22.632812 -24.785156 21.671875 -26.46875 20.453125 -27.65625 C 19.242188 -28.84375 17.90625 -29.4375 16.4375 -29.4375 Z M 16.4375 -29.4375 "/></g></g></g><g fill="#d4500a" fill-opacity="1"><g transform="translate(158.660639, 73.929952)"><g><path d="M 11.875 -30.140625 C 13.519531 -30.140625 14.785156 -29.960938 15.671875 -29.609375 C 16.566406 -29.265625 17.335938 -28.898438 17.984375 -28.515625 C 18.316406 -28.316406 18.585938 -28.171875 18.796875 -28.078125 C 19.003906 -27.984375 19.207031 -27.9375 19.40625 -27.9375 C 19.675781 -27.9375 19.875 -28.085938 20 -28.390625 C 20.132812 -28.691406 20.242188 -29.148438 20.328125 -29.765625 L 21.28125 -29.765625 C 21.25 -29.234375 21.210938 -28.597656 21.171875 -27.859375 C 21.128906 -27.128906 21.101562 -26.164062 21.09375 -24.96875 C 21.082031 -23.769531 21.078125 -22.191406 21.078125 -20.234375 L 20.109375 -20.234375 C 19.992188 -21.679688 19.65625 -23.085938 19.09375 -24.453125 C 18.539062 -25.828125 17.753906 -26.953125 16.734375 -27.828125 C 15.722656 -28.703125 14.476562 -29.140625 13 -29.140625 C 11.664062 -29.140625 10.566406 -28.765625 9.703125 -28.015625 C 8.835938 -27.265625 8.40625 -26.21875 8.40625 -24.875 C 8.40625 -23.757812 8.679688 -22.804688 9.234375 -22.015625 C 9.796875 -21.222656 10.613281 -20.445312 11.6875 -19.6875 C 12.757812 -18.9375 14.0625 -18.03125 15.59375 -16.96875 C 16.9375 -16.101562 18.132812 -15.238281 19.1875 -14.375 C 20.25 -13.519531 21.097656 -12.546875 21.734375 -11.453125 C 22.378906 -10.367188 22.703125 -9.070312 22.703125 -7.5625 C 22.703125 -5.726562 22.21875 -4.210938 21.25 -3.015625 C 20.289062 -1.816406 19.03125 -0.914062 17.46875 -0.3125 C 15.914062 0.28125 14.203125 0.578125 12.328125 0.578125 C 10.609375 0.578125 9.226562 0.410156 8.1875 0.078125 C 7.15625 -0.253906 6.296875 -0.601562 5.609375 -0.96875 C 4.992188 -1.351562 4.519531 -1.546875 4.1875 -1.546875 C 3.90625 -1.546875 3.703125 -1.390625 3.578125 -1.078125 C 3.453125 -0.773438 3.347656 -0.316406 3.265625 0.296875 L 2.296875 0.296875 C 2.359375 -0.367188 2.394531 -1.148438 2.40625 -2.046875 C 2.414062 -2.941406 2.425781 -4.101562 2.4375 -5.53125 C 2.457031 -6.96875 2.46875 -8.789062 2.46875 -11 L 3.421875 -11 C 3.535156 -9.15625 3.847656 -7.429688 4.359375 -5.828125 C 4.878906 -4.222656 5.675781 -2.929688 6.75 -1.953125 C 7.820312 -0.984375 9.25 -0.5 11.03125 -0.5 C 12.007812 -0.5 12.878906 -0.671875 13.640625 -1.015625 C 14.410156 -1.367188 15.03125 -1.894531 15.5 -2.59375 C 15.976562 -3.289062 16.21875 -4.15625 16.21875 -5.1875 C 16.21875 -6.351562 15.945312 -7.367188 15.40625 -8.234375 C 14.863281 -9.097656 14.125 -9.90625 13.1875 -10.65625 C 12.257812 -11.414062 11.179688 -12.1875 9.953125 -12.96875 C 8.640625 -13.832031 7.410156 -14.691406 6.265625 -15.546875 C 5.128906 -16.410156 4.21875 -17.398438 3.53125 -18.515625 C 2.851562 -19.640625 2.515625 -20.96875 2.515625 -22.5 C 2.515625 -24.25 2.953125 -25.6875 3.828125 -26.8125 C 4.703125 -27.945312 5.859375 -28.785156 7.296875 -29.328125 C 8.734375 -29.867188 10.257812 -30.140625 11.875 -30.140625 Z M 11.875 -30.140625 "/></g></g></g></svg>