<svg xmlns="http://www.w3.org/2000/svg" xmlns:xlink="http://www.w3.org/1999/xlink" width="230" zoomAndPan="magnify" viewBox="0 0 172.5 172.499994" height="230" preserveAspectRatio="xMidYMid meet" version="1.0"><defs><g/><clipPath id="a94c5ac78a"><path d="M 0 0 L 172 0 L 172 172 L 0 172 Z M 0 0 " clip-rule="nonzero"/></clipPath><clipPath id="34d7723f60"><path d="M 22.433594 0 L 149.566406 0 C 161.957031 0 172 10.042969 172 22.433594 L 172 149.566406 C 172 161.957031 161.957031 172 149.566406 172 L 22.433594 172 C 10.042969 172 0 161.957031 0 149.566406 L 0 22.433594 C 0 10.042969 10.042969 0 22.433594 0 Z M 22.433594 0 " clip-rule="nonzero"/></clipPath><clipPath id="d3abf5a6cb"><path d="M 0 0 L 172 0 L 172 172 L 0 172 Z M 0 0 " clip-rule="nonzero"/></clipPath><clipPath id="2e5764b7cc"><path d="M 22.433594 0 L 149.566406 0 C 161.957031 0 172 10.042969 172 22.433594 L 172 149.566406 C 172 161.957031 161.957031 172 149.566406 172 L 22.433594 172 C 10.042969 172 0 161.957031 0 149.566406 L 0 22.433594 C 0 10.042969 10.042969 0 22.433594 0 Z M 22.433594 0 " clip-rule="nonzero"/></clipPath><clipPath id="782cefc710"><rect x="0" width="172" y="0" height="172"/></clipPath></defs><g clip-path="url(#a94c5ac78a)"><g clip-path="url(#34d7723f60)"><g transform="matrix(1, 0, 0, 1, 0, 0)"><g clip-path="url(#782cefc710)"><g clip-path="url(#d3abf5a6cb)"><g clip-path="url(#2e5764b7cc)"><rect x="-37.95" width="248.4" fill="#f5f0e8" height="248.399991" y="-37.949999" fill-opacity="1"/></g></g></g></g></g></g><g fill="#0f0e0c" fill-opacity="1"><g transform="translate(32.875413, 67.205117)"><g><path d="M 34.71875 -29.640625 L 34.71875 -28.8125 C 33.769531 -28.78125 33.050781 -28.671875 32.5625 -28.484375 C 32.070312 -28.304688 31.742188 -27.972656 31.578125 -27.484375 C 31.410156 -27.003906 31.328125 -26.242188 31.328125 -25.203125 L 31.328125 -4.4375 C 31.328125 -3.4375 31.410156 -2.679688 31.578125 -2.171875 C 31.742188 -1.671875 32.070312 -1.335938 32.5625 -1.171875 C 33.050781 -1.003906 33.769531 -0.894531 34.71875 -0.84375 L 34.71875 0 C 34.070312 -0.0507812 33.265625 -0.0820312 32.296875 -0.09375 C 31.335938 -0.113281 30.367188 -0.125 29.390625 -0.125 C 28.304688 -0.125 27.289062 -0.113281 26.34375 -0.09375 C 25.394531 -0.0820312 24.625 -0.0507812 24.03125 0 L 24.03125 -0.84375 C 24.976562 -0.894531 25.695312 -1.003906 26.1875 -1.171875 C 26.675781 -1.335938 27.003906 -1.671875 27.171875 -2.171875 C 27.335938 -2.679688 27.421875 -3.4375 27.421875 -4.4375 L 27.421875 -27.46875 L 27.59375 -27.34375 L 17.34375 0.203125 L 16.671875 0.203125 L 6.109375 -26.96875 L 6.109375 -4.859375 C 6.109375 -3.847656 6.195312 -3.054688 6.375 -2.484375 C 6.5625 -1.921875 6.925781 -1.519531 7.46875 -1.28125 C 8.019531 -1.039062 8.835938 -0.894531 9.921875 -0.84375 L 9.921875 0 C 9.421875 -0.0507812 8.765625 -0.0820312 7.953125 -0.09375 C 7.140625 -0.113281 6.375 -0.125 5.65625 -0.125 C 4.957031 -0.125 4.25 -0.113281 3.53125 -0.09375 C 2.820312 -0.0820312 2.234375 -0.0507812 1.765625 0 L 1.765625 -0.84375 C 2.710938 -0.894531 3.425781 -1.039062 3.90625 -1.28125 C 4.394531 -1.519531 4.722656 -1.921875 4.890625 -2.484375 C 5.066406 -3.054688 5.15625 -3.847656 5.15625 -4.859375 L 5.15625 -25.203125 C 5.15625 -26.242188 5.066406 -27.003906 4.890625 -27.484375 C 4.722656 -27.972656 4.394531 -28.304688 3.90625 -28.484375 C 3.425781 -28.671875 2.710938 -28.78125 1.765625 -28.8125 L 1.765625 -29.640625 C 2.234375 -29.617188 2.820312 -29.59375 3.53125 -29.5625 C 4.25 -29.53125 4.957031 -29.515625 5.65625 -29.515625 C 6.269531 -29.515625 6.90625 -29.53125 7.5625 -29.5625 C 8.21875 -29.59375 8.769531 -29.617188 9.21875 -29.640625 L 18.71875 -4.609375 L 18 -4.265625 L 27.421875 -29.515625 C 27.765625 -29.515625 28.09375 -29.515625 28.40625 -29.515625 C 28.726562 -29.515625 29.054688 -29.515625 29.390625 -29.515625 C 30.367188 -29.515625 31.335938 -29.53125 32.296875 -29.5625 C 33.265625 -29.59375 34.070312 -29.617188 34.71875 -29.640625 Z M 34.71875 -29.640625 "/></g></g></g><g fill="#0f0e0c" fill-opacity="1"><g transform="translate(68.59787, 67.205117)"><g><path d="M 11.390625 -22.15625 C 13.847656 -22.15625 15.765625 -21.40625 17.140625 -19.90625 C 18.523438 -18.414062 19.21875 -16.09375 19.21875 -12.9375 L 4.4375 -12.9375 L 4.390625 -13.734375 L 15.203125 -13.734375 C 15.253906 -15.097656 15.140625 -16.359375 14.859375 -17.515625 C 14.585938 -18.679688 14.148438 -19.613281 13.546875 -20.3125 C 12.941406 -21.007812 12.164062 -21.359375 11.21875 -21.359375 C 9.9375 -21.359375 8.800781 -20.710938 7.8125 -19.421875 C 6.820312 -18.140625 6.226562 -16.101562 6.03125 -13.3125 L 6.15625 -13.15625 C 6.101562 -12.726562 6.0625 -12.265625 6.03125 -11.765625 C 6 -11.265625 5.984375 -10.765625 5.984375 -10.265625 C 5.984375 -8.359375 6.289062 -6.722656 6.90625 -5.359375 C 7.519531 -3.992188 8.320312 -2.953125 9.3125 -2.234375 C 10.300781 -1.523438 11.328125 -1.171875 12.390625 -1.171875 C 13.234375 -1.171875 14.03125 -1.300781 14.78125 -1.5625 C 15.53125 -1.832031 16.226562 -2.273438 16.875 -2.890625 C 17.519531 -3.503906 18.078125 -4.328125 18.546875 -5.359375 L 19.390625 -5.03125 C 19.078125 -4.101562 18.570312 -3.207031 17.875 -2.34375 C 17.175781 -1.476562 16.296875 -0.769531 15.234375 -0.21875 C 14.179688 0.320312 12.957031 0.59375 11.5625 0.59375 C 9.550781 0.59375 7.828125 0.132812 6.390625 -0.78125 C 4.953125 -1.707031 3.847656 -2.988281 3.078125 -4.625 C 2.304688 -6.257812 1.921875 -8.140625 1.921875 -10.265625 C 1.921875 -12.710938 2.3125 -14.820312 3.09375 -16.59375 C 3.875 -18.375 4.976562 -19.742188 6.40625 -20.703125 C 7.832031 -21.671875 9.492188 -22.15625 11.390625 -22.15625 Z M 11.390625 -22.15625 "/></g></g></g><g fill="#0f0e0c" fill-opacity="1"><g transform="translate(89.788446, 67.205117)"><g><path d="M 15.28125 -22.15625 C 16.34375 -22.15625 17.226562 -22.015625 17.9375 -21.734375 C 18.65625 -21.453125 19.25 -21.0625 19.71875 -20.5625 C 20.25 -20 20.625 -19.296875 20.84375 -18.453125 C 21.070312 -17.617188 21.1875 -16.492188 21.1875 -15.078125 L 21.1875 -3.890625 C 21.1875 -2.722656 21.429688 -1.925781 21.921875 -1.5 C 22.410156 -1.082031 23.226562 -0.875 24.375 -0.875 L 24.375 0 C 23.894531 -0.03125 23.164062 -0.0664062 22.1875 -0.109375 C 21.21875 -0.148438 20.269531 -0.171875 19.34375 -0.171875 C 18.425781 -0.171875 17.523438 -0.148438 16.640625 -0.109375 C 15.765625 -0.0664062 15.101562 -0.03125 14.65625 0 L 14.65625 -0.875 C 15.65625 -0.875 16.363281 -1.082031 16.78125 -1.5 C 17.207031 -1.925781 17.421875 -2.722656 17.421875 -3.890625 L 17.421875 -16 C 17.421875 -16.863281 17.347656 -17.65625 17.203125 -18.375 C 17.066406 -19.101562 16.753906 -19.691406 16.265625 -20.140625 C 15.773438 -20.585938 15.03125 -20.8125 14.03125 -20.8125 C 12.851562 -20.8125 11.820312 -20.472656 10.9375 -19.796875 C 10.0625 -19.128906 9.378906 -18.21875 8.890625 -17.0625 C 8.410156 -15.90625 8.171875 -14.613281 8.171875 -13.1875 L 8.171875 -3.890625 C 8.171875 -2.722656 8.378906 -1.925781 8.796875 -1.5 C 9.210938 -1.082031 9.921875 -0.875 10.921875 -0.875 L 10.921875 0 C 10.484375 -0.03125 9.820312 -0.0664062 8.9375 -0.109375 C 8.0625 -0.148438 7.160156 -0.171875 6.234375 -0.171875 C 5.316406 -0.171875 4.367188 -0.148438 3.390625 -0.109375 C 2.410156 -0.0664062 1.6875 -0.03125 1.21875 0 L 1.21875 -0.875 C 2.363281 -0.875 3.175781 -1.082031 3.65625 -1.5 C 4.144531 -1.925781 4.390625 -2.722656 4.390625 -3.890625 L 4.390625 -17 C 4.390625 -18.257812 4.164062 -19.1875 3.71875 -19.78125 C 3.28125 -20.382812 2.445312 -20.6875 1.21875 -20.6875 L 1.21875 -21.5625 C 2.101562 -21.476562 2.96875 -21.4375 3.8125 -21.4375 C 4.625 -21.4375 5.398438 -21.484375 6.140625 -21.578125 C 6.878906 -21.679688 7.554688 -21.832031 8.171875 -22.03125 L 8.171875 -17.078125 C 8.890625 -18.984375 9.898438 -20.304688 11.203125 -21.046875 C 12.503906 -21.785156 13.863281 -22.15625 15.28125 -22.15625 Z M 15.28125 -22.15625 "/></g></g></g><g fill="#0f0e0c" fill-opacity="1"><g transform="translate(114.78997, 67.205117)"><g><path d="M 20.21875 -22.03125 L 20.21875 -4.515625 C 20.21875 -3.265625 20.445312 -2.335938 20.90625 -1.734375 C 21.375 -1.140625 22.207031 -0.84375 23.40625 -0.84375 L 23.40625 0.046875 C 22.539062 -0.0351562 21.675781 -0.078125 20.8125 -0.078125 C 20 -0.078125 19.222656 -0.0351562 18.484375 0.046875 C 17.742188 0.128906 17.066406 0.28125 16.453125 0.5 L 16.453125 -4.4375 C 15.753906 -2.625 14.769531 -1.332031 13.5 -0.5625 C 12.226562 0.207031 10.925781 0.59375 9.59375 0.59375 C 8.613281 0.59375 7.757812 0.453125 7.03125 0.171875 C 6.3125 -0.109375 5.710938 -0.5 5.234375 -1 C 4.703125 -1.5625 4.335938 -2.285156 4.140625 -3.171875 C 3.953125 -4.066406 3.859375 -5.171875 3.859375 -6.484375 L 3.859375 -17 C 3.859375 -18.257812 3.632812 -19.1875 3.1875 -19.78125 C 2.738281 -20.382812 1.898438 -20.6875 0.671875 -20.6875 L 0.671875 -21.5625 C 1.566406 -21.476562 2.429688 -21.4375 3.265625 -21.4375 C 4.078125 -21.4375 4.851562 -21.484375 5.59375 -21.578125 C 6.332031 -21.679688 7.007812 -21.832031 7.625 -22.03125 L 7.625 -5.5625 C 7.625 -4.695312 7.675781 -3.898438 7.78125 -3.171875 C 7.894531 -2.453125 8.175781 -1.867188 8.625 -1.421875 C 9.070312 -0.972656 9.796875 -0.75 10.796875 -0.75 C 11.890625 -0.75 12.859375 -1.082031 13.703125 -1.75 C 14.554688 -2.425781 15.226562 -3.335938 15.71875 -4.484375 C 16.207031 -5.628906 16.453125 -6.910156 16.453125 -8.328125 L 16.453125 -17 C 16.453125 -18.257812 16.226562 -19.1875 15.78125 -19.78125 C 15.332031 -20.382812 14.5 -20.6875 13.28125 -20.6875 L 13.28125 -21.5625 C 14.164062 -21.476562 15.03125 -21.4375 15.875 -21.4375 C 16.675781 -21.4375 17.445312 -21.484375 18.1875 -21.578125 C 18.925781 -21.679688 19.601562 -21.832031 20.21875 -22.03125 Z M 20.21875 -22.03125 "/></g></g></g><g fill="#d4500a" fill-opacity="1"><g transform="translate(32.875413, 132.665447)"><g><path d="M 30.546875 -53.265625 C 36.097656 -53.265625 40.960938 -52.207031 45.140625 -50.09375 C 49.328125 -47.976562 52.578125 -44.941406 54.890625 -40.984375 C 57.203125 -37.023438 58.359375 -32.21875 58.359375 -26.5625 C 58.359375 -21.050781 57.175781 -16.226562 54.8125 -12.09375 C 52.457031 -7.96875 49.175781 -4.75 44.96875 -2.4375 C 40.757812 -0.125 35.925781 1.03125 30.46875 1.03125 C 24.914062 1.03125 20.046875 -0.0234375 15.859375 -2.140625 C 11.679688 -4.253906 8.4375 -7.300781 6.125 -11.28125 C 3.8125 -15.269531 2.65625 -20.066406 2.65625 -25.671875 C 2.65625 -31.179688 3.847656 -36 6.234375 -40.125 C 8.617188 -44.257812 11.898438 -47.484375 16.078125 -49.796875 C 20.265625 -52.109375 25.085938 -53.265625 30.546875 -53.265625 Z M 30.25 -51.9375 C 27.789062 -51.9375 25.648438 -50.828125 23.828125 -48.609375 C 22.003906 -46.398438 20.601562 -43.351562 19.625 -39.46875 C 18.644531 -35.582031 18.15625 -31.082031 18.15625 -25.96875 C 18.15625 -20.757812 18.71875 -16.222656 19.84375 -12.359375 C 20.976562 -8.492188 22.503906 -5.515625 24.421875 -3.421875 C 26.335938 -1.335938 28.453125 -0.296875 30.765625 -0.296875 C 33.222656 -0.296875 35.363281 -1.398438 37.1875 -3.609375 C 39.007812 -5.828125 40.410156 -8.890625 41.390625 -12.796875 C 42.367188 -16.710938 42.859375 -21.203125 42.859375 -26.265625 C 42.859375 -31.523438 42.289062 -36.070312 41.15625 -39.90625 C 40.03125 -43.75 38.507812 -46.710938 36.59375 -48.796875 C 34.675781 -50.890625 32.5625 -51.9375 30.25 -51.9375 Z M 30.25 -51.9375 "/></g></g></g><g fill="#d4500a" fill-opacity="1"><g transform="translate(93.890044, 132.665447)"><g><path d="M 22.28125 -53.265625 C 25.476562 -53.265625 27.960938 -52.945312 29.734375 -52.3125 C 31.503906 -51.675781 33.003906 -51.007812 34.234375 -50.3125 C 34.828125 -49.96875 35.304688 -49.707031 35.671875 -49.53125 C 36.046875 -49.363281 36.40625 -49.28125 36.75 -49.28125 C 37.238281 -49.28125 37.59375 -49.550781 37.8125 -50.09375 C 38.03125 -50.632812 38.210938 -51.445312 38.359375 -52.53125 L 40.0625 -52.53125 C 40.007812 -51.5 39.945312 -50.289062 39.875 -48.90625 C 39.800781 -47.53125 39.75 -45.710938 39.71875 -43.453125 C 39.695312 -41.191406 39.6875 -38.21875 39.6875 -34.53125 L 38 -34.53125 C 37.800781 -37.238281 37.171875 -39.867188 36.109375 -42.421875 C 35.054688 -44.984375 33.609375 -47.097656 31.765625 -48.765625 C 29.921875 -50.441406 27.71875 -51.28125 25.15625 -51.28125 C 22.988281 -51.28125 21.191406 -50.6875 19.765625 -49.5 C 18.347656 -48.320312 17.640625 -46.628906 17.640625 -44.421875 C 17.640625 -42.597656 18.082031 -41.035156 18.96875 -39.734375 C 19.851562 -38.429688 21.238281 -37.066406 23.125 -35.640625 C 25.019531 -34.210938 27.519531 -32.414062 30.625 -30.25 C 32.832031 -28.726562 34.832031 -27.203125 36.625 -25.671875 C 38.425781 -24.148438 39.867188 -22.429688 40.953125 -20.515625 C 42.035156 -18.597656 42.578125 -16.285156 42.578125 -13.578125 C 42.578125 -10.273438 41.648438 -7.539062 39.796875 -5.375 C 37.953125 -3.21875 35.503906 -1.609375 32.453125 -0.546875 C 29.410156 0.503906 26.09375 1.03125 22.5 1.03125 C 19.15625 1.03125 16.488281 0.734375 14.5 0.140625 C 12.507812 -0.441406 10.820312 -1.054688 9.4375 -1.703125 C 8.363281 -2.390625 7.53125 -2.734375 6.9375 -2.734375 C 6.445312 -2.734375 6.085938 -2.460938 5.859375 -1.921875 C 5.640625 -1.378906 5.457031 -0.566406 5.3125 0.515625 L 3.609375 0.515625 C 3.710938 -0.765625 3.773438 -2.253906 3.796875 -3.953125 C 3.828125 -5.648438 3.851562 -7.847656 3.875 -10.546875 C 3.894531 -13.253906 3.90625 -16.695312 3.90625 -20.875 L 5.609375 -20.875 C 5.804688 -17.4375 6.359375 -14.21875 7.265625 -11.21875 C 8.171875 -8.21875 9.570312 -5.796875 11.46875 -3.953125 C 13.363281 -2.109375 15.882812 -1.1875 19.03125 -1.1875 C 20.851562 -1.1875 22.414062 -1.46875 23.71875 -2.03125 C 25.019531 -2.59375 26.039062 -3.414062 26.78125 -4.5 C 27.519531 -5.582031 27.890625 -6.882812 27.890625 -8.40625 C 27.890625 -10.476562 27.421875 -12.285156 26.484375 -13.828125 C 25.546875 -15.378906 24.28125 -16.832031 22.6875 -18.1875 C 21.09375 -19.539062 19.238281 -20.90625 17.125 -22.28125 C 14.8125 -23.851562 12.644531 -25.425781 10.625 -27 C 8.601562 -28.570312 6.988281 -30.34375 5.78125 -32.3125 C 4.582031 -34.28125 3.984375 -36.617188 3.984375 -39.328125 C 3.984375 -42.566406 4.84375 -45.207031 6.5625 -47.25 C 8.289062 -49.289062 10.554688 -50.800781 13.359375 -51.78125 C 16.160156 -52.769531 19.132812 -53.265625 22.28125 -53.265625 Z M 22.28125 -53.265625 "/></g></g></g></svg>